<svg width="60" height="60" viewBox="0 0 60 60" fill="none" xmlns="http://www.w3.org/2000/svg">
<g filter="url(#filter0_d_529_3926)">
<circle cx="30" cy="30" r="18" fill="white"/>
</g>
<path fill-rule="evenodd" clip-rule="evenodd" d="M33.3531 23.6459C33.3067 23.5994 33.2515 23.5624 33.1907 23.5372C33.13 23.512 33.0649 23.499 32.9991 23.499C32.9333 23.499 32.8682 23.512 32.8075 23.5372C32.7467 23.5624 32.6916 23.5994 32.6451 23.6459L26.6451 29.6459C26.5985 29.6924 26.5616 29.7475 26.5364 29.8083C26.5112 29.869 26.4982 29.9341 26.4982 29.9999C26.4982 30.0657 26.5112 30.1308 26.5364 30.1916C26.5616 30.2523 26.5985 30.3075 26.6451 30.3539L32.6451 36.3539C32.739 36.4478 32.8663 36.5005 32.9991 36.5005C33.1319 36.5005 33.2592 36.4478 33.3531 36.3539C33.447 36.26 33.4997 36.1327 33.4997 35.9999C33.4997 35.8671 33.447 35.7398 33.3531 35.6459L27.7061 29.9999L33.3531 24.3539C33.3997 24.3075 33.4366 24.2523 33.4618 24.1916C33.487 24.1308 33.5 24.0657 33.5 23.9999C33.5 23.9341 33.487 23.869 33.4618 23.8083C33.4366 23.7475 33.3997 23.6924 33.3531 23.6459Z" fill="black"/>
<defs>
<filter id="filter0_d_529_3926" x="0" y="0" width="60" height="60" filterUnits="userSpaceOnUse" color-interpolation-filters="sRGB">
<feFlood flood-opacity="0" result="BackgroundImageFix"/>
<feColorMatrix in="SourceAlpha" type="matrix" values="0 0 0 0 0 0 0 0 0 0 0 0 0 0 0 0 0 0 127 0" result="hardAlpha"/>
<feOffset/>
<feGaussianBlur stdDeviation="6"/>
<feComposite in2="hardAlpha" operator="out"/>
<feColorMatrix type="matrix" values="0 0 0 0 0.129412 0 0 0 0 0.129412 0 0 0 0 0.129412 0 0 0 0.08 0"/>
<feBlend mode="normal" in2="BackgroundImageFix" result="effect1_dropShadow_529_3926"/>
<feBlend mode="normal" in="SourceGraphic" in2="effect1_dropShadow_529_3926" result="shape"/>
</filter>
</defs>
</svg>
