<svg width="12" height="12" viewBox="0 0 12 12" fill="none" xmlns="http://www.w3.org/2000/svg">
<path fill-rule="evenodd" clip-rule="evenodd" d="M1.23517 3.48419C1.27 3.44927 1.31139 3.42156 1.35695 3.40266C1.4025 3.38375 1.45134 3.37402 1.50067 3.37402C1.55 3.37402 1.59884 3.38375 1.6444 3.40266C1.68995 3.42156 1.73134 3.44927 1.76617 3.48419L6.00067 7.71944L10.2352 3.48419C10.27 3.44933 10.3114 3.42167 10.357 3.4028C10.4025 3.38393 10.4514 3.37422 10.5007 3.37422C10.55 3.37422 10.5988 3.38393 10.6444 3.4028C10.6899 3.42167 10.7313 3.44933 10.7662 3.48419C10.801 3.51906 10.8287 3.56045 10.8476 3.60601C10.8664 3.65156 10.8761 3.70039 10.8761 3.74969C10.8761 3.799 10.8664 3.84783 10.8476 3.89338C10.8287 3.93894 10.801 3.98033 10.7662 4.01519L6.26617 8.51519C6.23134 8.55012 6.18995 8.57782 6.14439 8.59673C6.09884 8.61563 6.05 8.62536 6.00067 8.62536C5.95134 8.62536 5.9025 8.61563 5.85695 8.59673C5.81139 8.57782 5.77 8.55012 5.73517 8.51519L1.23517 4.01519C1.20025 3.98036 1.17254 3.93898 1.15364 3.89342C1.13473 3.84786 1.125 3.79902 1.125 3.74969C1.125 3.70037 1.13473 3.65153 1.15364 3.60597C1.17254 3.56041 1.20025 3.51903 1.23517 3.48419Z" fill="white"/>
</svg>
