<svg width="32" height="32" viewBox="0 0 32 32" fill="none" xmlns="http://www.w3.org/2000/svg">
<g clip-path="url(#clip0_529_3487)">
<path d="M16 24.9999C16.5304 24.9999 17.0391 24.7892 17.4142 24.4141C17.7893 24.039 18 23.5303 18 22.9999H14C14 23.5303 14.2107 24.039 14.5858 24.4141C14.9609 24.7892 15.4696 24.9999 16 24.9999ZM16.995 10.0989C17.009 9.95985 16.9936 9.81942 16.95 9.68667C16.9063 9.55392 16.8353 9.43179 16.7416 9.32816C16.6478 9.22452 16.5334 9.14169 16.4057 9.085C16.2779 9.02831 16.1397 8.99902 16 8.99902C15.8603 8.99902 15.7221 9.02831 15.5943 9.085C15.4666 9.14169 15.3522 9.22452 15.2584 9.32816C15.1647 9.43179 15.0937 9.55392 15.05 9.68667C15.0064 9.81942 14.991 9.95985 15.005 10.0989C13.8747 10.3288 12.8586 10.9423 12.1288 11.8354C11.3989 12.7285 11.0001 13.8465 11 14.9999C11 16.0979 10.5 20.9999 9 21.9999H23C21.5 20.9999 21 16.0979 21 14.9999C21 12.5799 19.28 10.5599 16.995 10.0989V10.0989Z" fill="white"/>
</g>
<circle cx="20" cy="11" r="4" fill="#E72847"/>
<defs>
<clipPath id="clip0_529_3487">
<rect width="16" height="16" fill="white" transform="translate(8 9)"/>
</clipPath>
</defs>
</svg>
