<svg width="32" height="32" viewBox="0 0 32 32" fill="none" xmlns="http://www.w3.org/2000/svg">
<g clip-path="url(#clip0_529_3563)">
<path d="M16 23.9999C16.5304 23.9999 17.0391 23.7892 17.4142 23.4141C17.7893 23.039 18 22.5303 18 21.9999H14C14 22.5303 14.2107 23.039 14.5858 23.4141C14.9609 23.7892 15.4696 23.9999 16 23.9999ZM16.995 9.0989C17.009 8.95985 16.9936 8.81942 16.95 8.68667C16.9063 8.55392 16.8353 8.43179 16.7416 8.32816C16.6478 8.22452 16.5334 8.14169 16.4057 8.085C16.2779 8.02831 16.1397 7.99902 16 7.99902C15.8603 7.99902 15.7221 8.02831 15.5943 8.085C15.4666 8.14169 15.3522 8.22452 15.2584 8.32816C15.1647 8.43179 15.0937 8.55392 15.05 8.68667C15.0064 8.81942 14.991 8.95985 15.005 9.0989C13.8747 9.3288 12.8586 9.94226 12.1288 10.8354C11.3989 11.7285 11.0001 12.8465 11 13.9999C11 15.0979 10.5 19.9999 9 20.9999H23C21.5 19.9999 21 15.0979 21 13.9999C21 11.5799 19.28 9.5599 16.995 9.0989Z" fill="white"/>
</g>
<defs>
<clipPath id="clip0_529_3563">
<rect width="16" height="16" fill="white" transform="translate(8 8)"/>
</clipPath>
</defs>
</svg>
