<svg width="48" height="48" viewBox="0 0 48 48" fill="none" xmlns="http://www.w3.org/2000/svg">
<rect width="48" height="48" rx="24" fill="#33343B"/>
<g clip-path="url(#clip0_529_3875)">
<path d="M16.5703 16.5712V33.9272C16.5702 34.0388 16.5992 34.1485 16.6544 34.2456C16.7096 34.3426 16.7891 34.4236 16.8852 34.4805C16.9812 34.5375 17.0903 34.5684 17.2019 34.5704C17.3136 34.5723 17.4237 34.5452 17.5217 34.4916L24.2841 30.8018L31.0465 34.4916C31.1444 34.5452 31.2546 34.5723 31.3662 34.5704C31.4778 34.5684 31.587 34.5375 31.683 34.4805C31.779 34.4236 31.8585 34.3426 31.9137 34.2456C31.9689 34.1485 31.9979 34.0388 31.9978 33.9272V16.5712C31.9978 15.8893 31.7269 15.2353 31.2447 14.7531C30.7625 14.2709 30.1085 14 29.4266 14H19.1416C18.4596 14 17.8056 14.2709 17.3234 14.7531C16.8412 15.2353 16.5703 15.8893 16.5703 16.5712Z" fill="#E72847"/>
</g>
<defs>
<clipPath id="clip0_529_3875">
<rect width="20.57" height="20.57" fill="white" transform="translate(14 14)"/>
</clipPath>
</defs>
</svg>
