<svg width="48" height="48" viewBox="0 0 48 48" fill="none" xmlns="http://www.w3.org/2000/svg">
<rect width="48" height="48" rx="24" fill="#33343B"/>
<g clip-path="url(#clip0_529_3871)">
<path d="M16.2871 16.2853C16.2871 15.6033 16.558 14.9493 17.0403 14.467C17.5225 13.9848 18.1766 13.7139 18.8585 13.7139H29.1443C29.8262 13.7139 30.4803 13.9848 30.9625 14.467C31.4448 14.9493 31.7157 15.6033 31.7157 16.2853V33.6424C31.7156 33.7587 31.684 33.8728 31.6242 33.9726C31.5645 34.0723 31.4788 34.154 31.3763 34.2088C31.2737 34.2637 31.1583 34.2898 31.0421 34.2842C30.926 34.2787 30.8135 34.2417 30.7167 34.1773L24.0014 30.558L17.2861 34.1773C17.1893 34.2417 17.0768 34.2787 16.9607 34.2842C16.8445 34.2898 16.7291 34.2637 16.6265 34.2088C16.524 34.154 16.4383 34.0723 16.3785 33.9726C16.3188 33.8728 16.2872 33.7587 16.2871 33.6424V16.2853ZM18.8585 14.9996C18.5175 14.9996 18.1905 15.135 17.9494 15.3762C17.7083 15.6173 17.5728 15.9443 17.5728 16.2853V32.4416L23.6453 29.2504C23.7508 29.1802 23.8747 29.1428 24.0014 29.1428C24.1281 29.1428 24.252 29.1802 24.3575 29.2504L30.43 32.4416V16.2853C30.43 15.9443 30.2945 15.6173 30.0534 15.3762C29.8123 15.135 29.4852 14.9996 29.1443 14.9996H18.8585Z" fill="white"/>
</g>
<defs>
<clipPath id="clip0_529_3871">
<rect width="20.5714" height="20.5714" fill="white" transform="translate(13.7148 13.7139)"/>
</clipPath>
</defs>
</svg>
