<svg width="10" height="6" viewBox="0 0 10 6" fill="none" xmlns="http://www.w3.org/2000/svg">
<path fill-rule="evenodd" clip-rule="evenodd" d="M0.23517 0.484438C0.270005 0.449515 0.311386 0.421808 0.356945 0.402903C0.402504 0.383998 0.451345 0.374268 0.50067 0.374268C0.549996 0.374268 0.598837 0.383998 0.644396 0.402903C0.689955 0.421808 0.731336 0.449515 0.76617 0.484438L5.00067 4.71969L9.23517 0.484438C9.27004 0.449572 9.31143 0.421914 9.35698 0.403045C9.40254 0.384176 9.45136 0.374464 9.50067 0.374464C9.54998 0.374464 9.5988 0.384176 9.64436 0.403045C9.68991 0.421914 9.7313 0.449572 9.76617 0.484438C9.80104 0.519304 9.82869 0.560695 9.84756 0.60625C9.86643 0.651805 9.87614 0.70063 9.87614 0.749938C9.87614 0.799246 9.86643 0.848071 9.84756 0.893626C9.82869 0.93918 9.80104 0.980572 9.76617 1.01544L5.26617 5.51544C5.23134 5.55036 5.18995 5.57807 5.14439 5.59697C5.09884 5.61588 5.05 5.62561 5.00067 5.62561C4.95134 5.62561 4.9025 5.61588 4.85695 5.59697C4.81139 5.57807 4.77 5.55036 4.73517 5.51544L0.23517 1.01544C0.200248 0.980604 0.172541 0.939222 0.153636 0.893663C0.134731 0.848104 0.125 0.799263 0.125 0.749938C0.125 0.700612 0.134731 0.651771 0.153636 0.606213C0.172541 0.560654 0.200248 0.519272 0.23517 0.484438Z" fill="white"/>
</svg>
