<svg width="28" height="28" viewBox="0 0 28 28" fill="none" xmlns="http://www.w3.org/2000/svg">
<rect width="28" height="28" rx="14" fill="#F5F5F5"/>
<path d="M10.2258 10.2268C10.2781 10.1744 10.3401 10.1328 10.4085 10.1045C10.4768 10.0761 10.5501 10.0615 10.6241 10.0615C10.698 10.0615 10.7713 10.0761 10.8396 10.1045C10.908 10.1328 10.9701 10.1744 11.0223 10.2268L13.9991 13.2047L16.9758 10.2268C17.0281 10.1745 17.0902 10.133 17.1585 10.1047C17.2269 10.0764 17.3001 10.0618 17.3741 10.0618C17.448 10.0618 17.5213 10.0764 17.5896 10.1047C17.6579 10.133 17.72 10.1745 17.7723 10.2268C17.8246 10.2791 17.8661 10.3412 17.8944 10.4095C17.9227 10.4778 17.9373 10.5511 17.9373 10.625C17.9373 10.699 17.9227 10.7722 17.8944 10.8406C17.8661 10.9089 17.8246 10.971 17.7723 11.0233L14.7944 14L17.7723 16.9768C17.8246 17.0291 17.8661 17.0912 17.8944 17.1595C17.9227 17.2278 17.9373 17.3011 17.9373 17.375C17.9373 17.449 17.9227 17.5222 17.8944 17.5906C17.8661 17.6589 17.8246 17.721 17.7723 17.7733C17.72 17.8256 17.6579 17.8671 17.5896 17.8954C17.5213 17.9237 17.448 17.9382 17.3741 17.9382C17.3001 17.9382 17.2269 17.9237 17.1585 17.8954C17.0902 17.8671 17.0281 17.8256 16.9758 17.7733L13.9991 14.7954L11.0223 17.7733C10.97 17.8256 10.9079 17.8671 10.8396 17.8954C10.7713 17.9237 10.698 17.9382 10.6241 17.9382C10.5501 17.9382 10.4769 17.9237 10.4085 17.8954C10.3402 17.8671 10.2781 17.8256 10.2258 17.7733C10.1735 17.721 10.132 17.6589 10.1037 17.5906C10.0754 17.5222 10.0608 17.449 10.0608 17.375C10.0608 17.3011 10.0754 17.2278 10.1037 17.1595C10.132 17.0912 10.1735 17.0291 10.2258 16.9768L13.2037 14L10.2258 11.0233C10.1734 10.971 10.1319 10.909 10.1035 10.8406C10.0751 10.7723 10.0605 10.699 10.0605 10.625C10.0605 10.551 10.0751 10.4778 10.1035 10.4094C10.1319 10.3411 10.1734 10.279 10.2258 10.2268Z" fill="black"/>
</svg>
