<svg width="16" height="12" viewBox="0 0 16 12" fill="none" xmlns="http://www.w3.org/2000/svg">
<path d="M13.5123 0.458751C13.6061 0.363004 13.7181 0.286941 13.8417 0.235014C13.9653 0.183088 14.098 0.156342 14.2321 0.156342C14.3662 0.156342 14.4989 0.183088 14.6225 0.235014C14.7461 0.286941 14.8581 0.363004 14.9519 0.458751C15.3452 0.856126 15.3507 1.49825 14.9657 1.9025L6.83528 11.5138C6.74297 11.6151 6.63095 11.6966 6.50607 11.7532C6.3812 11.8098 6.24609 11.8403 6.10901 11.8428C5.97194 11.8454 5.83578 11.82 5.70887 11.7681C5.58195 11.7163 5.46695 11.6391 5.3709 11.5413L0.423653 6.528C0.232854 6.33342 0.125977 6.07177 0.125977 5.79925C0.125977 5.52673 0.232854 5.26508 0.423653 5.0705C0.517491 4.97475 0.629488 4.89869 0.753087 4.84677C0.876686 4.79484 1.0094 4.76809 1.14347 4.76809C1.27753 4.76809 1.41025 4.79484 1.53384 4.84677C1.65744 4.89869 1.76944 4.97475 1.86328 5.0705L6.05978 9.32338L13.4848 0.489001C13.4933 0.478375 13.5025 0.468273 13.5123 0.458751Z" fill="#E72847"/>
</svg>
