<svg width="24" height="24" viewBox="0 0 24 24" fill="none" xmlns="http://www.w3.org/2000/svg">
<path d="M12.0001 0C5.3735 0 0 5.50845 0 12.3038C0 17.7399 3.4384 22.3519 8.2064 23.9788C8.80615 24.0927 9.0263 23.7119 9.0263 23.3869C9.0263 23.0936 9.0152 22.1243 9.01 21.0962C5.67155 21.8405 4.96712 19.6445 4.96712 19.6445C4.42125 18.2224 3.63473 17.8442 3.63473 17.8442C2.54596 17.0806 3.71679 17.0963 3.71679 17.0963C4.92181 17.1831 5.5563 18.3642 5.5563 18.3642C6.6266 20.2452 8.3636 19.7014 9.04835 19.387C9.15605 18.5918 9.46705 18.049 9.81025 17.7418C7.14485 17.4306 4.34295 16.3756 4.34295 11.6612C4.34295 10.3179 4.81173 9.2203 5.57935 8.3587C5.45475 8.0488 5.044 6.79735 5.6956 5.1026C5.6956 5.1026 6.7033 4.77193 8.9965 6.3638C9.9537 6.0912 10.9803 5.95445 12.0001 5.9498C13.0199 5.95445 14.0473 6.0912 15.0063 6.3638C17.2967 4.77193 18.303 5.1026 18.303 5.1026C18.9562 6.79735 18.5453 8.0488 18.4207 8.3587C19.1901 9.2203 19.6556 10.3179 19.6556 11.6612C19.6556 16.3868 16.8484 17.4274 14.1763 17.732C14.6067 18.1138 14.9902 18.8626 14.9902 20.0105C14.9902 21.6567 14.9763 22.9817 14.9763 23.3869C14.9763 23.7144 15.1923 24.098 15.8006 23.9772C20.566 22.3485 24 17.7381 24 12.3038C24 5.50845 18.6273 0 12.0001 0Z" fill="white"/>
</svg>
