<svg width="346" height="59" viewBox="0 0 346 59" fill="none" xmlns="http://www.w3.org/2000/svg">
<g filter="url(#filter0_dd_529_3743)">
<rect x="3" y="3" width="340" height="51" rx="6" fill="black"/>
<path d="M133.715 27.2324H135.26C134.925 25.2979 133.271 23.9648 131.131 23.9648C128.574 23.9648 126.701 25.8926 126.701 29.0508C126.701 32.1885 128.52 34.1367 131.199 34.1367C133.605 34.1367 135.328 32.5576 135.328 30.0488V28.9277H131.432V30.1719H133.865C133.838 31.7578 132.792 32.7627 131.213 32.7559C129.463 32.7627 128.198 31.4434 128.191 29.0508C128.198 26.6514 129.477 25.3389 131.145 25.3457C132.45 25.3389 133.346 26.0635 133.715 27.2324ZM137.406 34H138.869V26.5762H137.406V34ZM137.215 24.5664C137.222 25.0449 137.639 25.4346 138.145 25.4277C138.644 25.4346 139.061 25.0449 139.061 24.5664C139.061 24.0879 138.644 23.7051 138.145 23.7051C137.639 23.7051 137.222 24.0879 137.215 24.5664ZM144.119 26.5762H142.602V24.7988H141.152V26.5762H140.059V27.7383H141.152V32.1133C141.139 33.4668 142.171 34.0957 143.312 34.0957C143.716 34.0957 144.03 34.0684 144.229 34.041V32.7695C144.023 32.79 143.702 32.8105 143.49 32.8105C143.019 32.8037 142.608 32.6533 142.602 31.8125V27.7383H144.119V26.5762ZM147.168 29.5977C147.168 28.415 147.913 27.7383 148.945 27.7383C149.93 27.7383 150.518 28.3672 150.518 29.4609V34H151.98V29.2832C151.98 27.4238 150.962 26.4805 149.438 26.4805C148.282 26.4805 147.585 26.9863 147.236 27.793H147.141V24.1016H145.705V34H147.168V29.5977ZM158.461 30.9102C158.461 32.1748 157.524 32.7695 156.711 32.7695C155.822 32.7695 155.207 32.127 155.207 31.1152V26.5762H153.744V31.293C153.744 33.1318 154.756 34.0957 156.191 34.0957C157.306 34.0957 158.064 33.5078 158.406 32.7148H158.488V34H159.91V26.5762H158.461V30.9102ZM161.811 34H163.232V32.8379H163.342C163.615 33.3232 164.142 34.1436 165.488 34.1504C167.286 34.1436 168.599 32.7012 168.605 30.3086C168.599 27.8887 167.272 26.4805 165.475 26.4805C164.101 26.4805 163.608 27.3145 163.342 27.7793H163.26V24.1016H161.811V34ZM163.232 30.2812C163.232 28.7363 163.909 27.7178 165.16 27.7246C166.466 27.7178 167.115 28.8184 167.115 30.2812C167.115 31.7715 166.445 32.8994 165.16 32.9062C163.93 32.8994 163.232 31.8398 163.232 30.2812ZM180.828 32.6055H175.838V30.459H179.748V29.3926H172.27V27.6016H179.461V23.7734H170.957V24.8398H178.176V26.5625H170.984V30.459H174.553V32.6055H169.617V33.6992H180.828V32.6055ZM196.346 32.6055H191.355V30.459H195.266V29.3926H187.787V27.6016H194.979V23.7734H186.475V24.8398H193.693V26.5625H186.502V30.459H190.07V32.6055H185.135V33.6992H196.346V32.6055ZM206.941 24.1562H198.438V25.2227H205.656V25.4688C205.656 27.0137 205.656 28.8115 205.164 31.2656L206.49 31.3887C206.941 28.7705 206.941 27.0547 206.941 25.4688V24.1562ZM197.234 33.4258H208.404V32.3457H197.234V33.4258ZM219.492 22.9258H218.193V31.8262H219.492V22.9258ZM209.58 26.7812C209.587 28.5791 210.995 29.8301 212.848 29.8301C214.693 29.8301 216.102 28.5791 216.102 26.7812C216.102 25.0107 214.693 23.7529 212.848 23.7461C210.995 23.7529 209.587 25.0107 209.58 26.7812ZM210.852 26.7812C210.845 25.6533 211.706 24.8809 212.848 24.8809C213.969 24.8809 214.83 25.6533 214.83 26.7812C214.83 27.9365 213.969 28.6953 212.848 28.6953C211.706 28.6953 210.845 27.9365 210.852 26.7812ZM211.48 34.9023H219.861V33.8496H212.793V30.9238H211.48V34.9023Z" fill="white" fill-opacity="0.9"/>
<path d="M32.0001 17C25.3735 17 20 22.5084 20 29.3038C20 34.7399 23.4384 39.3519 28.2064 40.9788C28.8061 41.0927 29.0263 40.7119 29.0263 40.3869C29.0263 40.0936 29.0152 39.1243 29.01 38.0962C25.6716 38.8405 24.9671 36.6445 24.9671 36.6445C24.4212 35.2224 23.6347 34.8442 23.6347 34.8442C22.546 34.0806 23.7168 34.0963 23.7168 34.0963C24.9218 34.1831 25.5563 35.3642 25.5563 35.3642C26.6266 37.2452 28.3636 36.7014 29.0484 36.387C29.1561 35.5918 29.4671 35.049 29.8103 34.7418C27.1449 34.4306 24.3429 33.3756 24.3429 28.6612C24.3429 27.3179 24.8117 26.2203 25.5793 25.3587C25.4548 25.0488 25.044 23.7973 25.6956 22.1026C25.6956 22.1026 26.7033 21.7719 28.9965 23.3638C29.9537 23.0912 30.9803 22.9544 32.0001 22.9498C33.0199 22.9544 34.0473 23.0912 35.0063 23.3638C37.2967 21.7719 38.303 22.1026 38.303 22.1026C38.9562 23.7973 38.5452 25.0488 38.4207 25.3587C39.1901 26.2203 39.6556 27.3179 39.6556 28.6612C39.6556 33.3868 36.8484 34.4274 34.1763 34.732C34.6067 35.1138 34.9902 35.8626 34.9902 37.0105C34.9902 38.6567 34.9763 39.9817 34.9763 40.3869C34.9763 40.7144 35.1923 41.098 35.8006 40.9772C40.566 39.3485 44 34.7381 44 29.3038C44 22.5084 38.6273 17 32.0001 17Z" fill="white"/>
<path d="M24.5805 34.5811C24.5542 34.6416 24.4605 34.6597 24.3753 34.6182C24.2884 34.5784 24.2396 34.4959 24.2678 34.4352C24.2935 34.3729 24.3874 34.3555 24.474 34.3973C24.5611 34.437 24.6107 34.5203 24.5805 34.5811Z" fill="#161514"/>
<path d="M25.0649 35.1317C25.0078 35.1856 24.8961 35.1606 24.8204 35.0754C24.742 34.9905 24.7273 34.8769 24.7852 34.8223C24.8442 34.7684 24.9524 34.7936 25.031 34.8785C25.1093 34.9645 25.1246 35.0773 25.0649 35.1317Z" fill="#161514"/>
<path d="M25.5373 35.8332C25.4639 35.8851 25.3439 35.8365 25.2697 35.7281C25.1963 35.6198 25.1963 35.4899 25.2713 35.4378C25.3457 35.3858 25.4639 35.4326 25.5391 35.5401C25.6123 35.6503 25.6123 35.7802 25.5373 35.8332Z" fill="#161514"/>
<path d="M26.1844 36.5109C26.1187 36.5846 25.9789 36.5648 25.8766 36.4643C25.7718 36.3661 25.7427 36.2267 25.8085 36.1531C25.875 36.0792 26.0156 36.1 26.1187 36.1997C26.2227 36.2977 26.2544 36.4381 26.1844 36.5109Z" fill="#161514"/>
<path d="M27.0772 36.9047C27.0482 37.0002 26.9136 37.0435 26.7779 37.003C26.6424 36.9612 26.5538 36.8495 26.5811 36.753C26.6093 36.657 26.7446 36.6118 26.8812 36.6552C27.0165 36.6968 27.1054 36.8077 27.0772 36.9047Z" fill="#161514"/>
<path d="M28.0576 36.9776C28.061 37.078 27.946 37.1614 27.8035 37.1632C27.6603 37.1664 27.5445 37.0851 27.5429 36.9863C27.5429 36.8848 27.6554 36.8023 27.7986 36.7999C27.941 36.797 28.0576 36.8777 28.0576 36.9776Z" fill="#161514"/>
<path d="M28.9697 36.8195C28.9867 36.9175 28.8878 37.0182 28.7463 37.045C28.6073 37.0708 28.4786 37.0103 28.4609 36.9131C28.4437 36.8126 28.5444 36.7119 28.6833 36.6859C28.8249 36.6609 28.9516 36.7198 28.9697 36.8195Z" fill="#161514"/>
</g>
<defs>
<filter id="filter0_dd_529_3743" x="0" y="0" width="346" height="59" filterUnits="userSpaceOnUse" color-interpolation-filters="sRGB">
<feFlood flood-opacity="0" result="BackgroundImageFix"/>
<feColorMatrix in="SourceAlpha" type="matrix" values="0 0 0 0 0 0 0 0 0 0 0 0 0 0 0 0 0 0 127 0" result="hardAlpha"/>
<feOffset dy="2"/>
<feGaussianBlur stdDeviation="1.5"/>
<feColorMatrix type="matrix" values="0 0 0 0 0 0 0 0 0 0 0 0 0 0 0 0 0 0 0.168 0"/>
<feBlend mode="normal" in2="BackgroundImageFix" result="effect1_dropShadow_529_3743"/>
<feColorMatrix in="SourceAlpha" type="matrix" values="0 0 0 0 0 0 0 0 0 0 0 0 0 0 0 0 0 0 127 0" result="hardAlpha"/>
<feOffset/>
<feGaussianBlur stdDeviation="1.5"/>
<feColorMatrix type="matrix" values="0 0 0 0 0 0 0 0 0 0 0 0 0 0 0 0 0 0 0.084 0"/>
<feBlend mode="normal" in2="effect1_dropShadow_529_3743" result="effect2_dropShadow_529_3743"/>
<feBlend mode="normal" in="SourceGraphic" in2="effect2_dropShadow_529_3743" result="shape"/>
</filter>
</defs>
</svg>
