<svg width="320" height="51" viewBox="0 0 320 51" fill="none" xmlns="http://www.w3.org/2000/svg">
<rect width="320" height="51" rx="6" fill="black"/>
<path d="M130.715 24.2324H132.26C131.925 22.2979 130.271 20.9648 128.131 20.9648C125.574 20.9648 123.701 22.8926 123.701 26.0508C123.701 29.1885 125.52 31.1367 128.199 31.1367C130.605 31.1367 132.328 29.5576 132.328 27.0488V25.9277H128.432V27.1719H130.865C130.838 28.7578 129.792 29.7627 128.213 29.7559C126.463 29.7627 125.198 28.4434 125.191 26.0508C125.198 23.6514 126.477 22.3389 128.145 22.3457C129.45 22.3389 130.346 23.0635 130.715 24.2324ZM134.406 31H135.869V23.5762H134.406V31ZM134.215 21.5664C134.222 22.0449 134.639 22.4346 135.145 22.4277C135.644 22.4346 136.061 22.0449 136.061 21.5664C136.061 21.0879 135.644 20.7051 135.145 20.7051C134.639 20.7051 134.222 21.0879 134.215 21.5664ZM141.119 23.5762H139.602V21.7988H138.152V23.5762H137.059V24.7383H138.152V29.1133C138.139 30.4668 139.171 31.0957 140.312 31.0957C140.716 31.0957 141.03 31.0684 141.229 31.041V29.7695C141.023 29.79 140.702 29.8105 140.49 29.8105C140.019 29.8037 139.608 29.6533 139.602 28.8125V24.7383H141.119V23.5762ZM144.168 26.5977C144.168 25.415 144.913 24.7383 145.945 24.7383C146.93 24.7383 147.518 25.3672 147.518 26.4609V31H148.98V26.2832C148.98 24.4238 147.962 23.4805 146.438 23.4805C145.282 23.4805 144.585 23.9863 144.236 24.793H144.141V21.1016H142.705V31H144.168V26.5977ZM155.461 27.9102C155.461 29.1748 154.524 29.7695 153.711 29.7695C152.822 29.7695 152.207 29.127 152.207 28.1152V23.5762H150.744V28.293C150.744 30.1318 151.756 31.0957 153.191 31.0957C154.306 31.0957 155.064 30.5078 155.406 29.7148H155.488V31H156.91V23.5762H155.461V27.9102ZM158.811 31H160.232V29.8379H160.342C160.615 30.3232 161.142 31.1436 162.488 31.1504C164.286 31.1436 165.599 29.7012 165.605 27.3086C165.599 24.8887 164.272 23.4805 162.475 23.4805C161.101 23.4805 160.608 24.3145 160.342 24.7793H160.26V21.1016H158.811V31ZM160.232 27.2812C160.232 25.7363 160.909 24.7178 162.16 24.7246C163.466 24.7178 164.115 25.8184 164.115 27.2812C164.115 28.7715 163.445 29.8994 162.16 29.9062C160.93 29.8994 160.232 28.8398 160.232 27.2812ZM177.828 29.6055H172.838V27.459H176.748V26.3926H169.27V24.6016H176.461V20.7734H167.957V21.8398H175.176V23.5625H167.984V27.459H171.553V29.6055H166.617V30.6992H177.828V29.6055ZM193.346 29.6055H188.355V27.459H192.266V26.3926H184.787V24.6016H191.979V20.7734H183.475V21.8398H190.693V23.5625H183.502V27.459H187.07V29.6055H182.135V30.6992H193.346V29.6055ZM203.941 21.1562H195.438V22.2227H202.656V22.4688C202.656 24.0137 202.656 25.8115 202.164 28.2656L203.49 28.3887C203.941 25.7705 203.941 24.0547 203.941 22.4688V21.1562ZM194.234 30.4258H205.404V29.3457H194.234V30.4258ZM216.492 19.9258H215.193V28.8262H216.492V19.9258ZM206.58 23.7812C206.587 25.5791 207.995 26.8301 209.848 26.8301C211.693 26.8301 213.102 25.5791 213.102 23.7812C213.102 22.0107 211.693 20.7529 209.848 20.7461C207.995 20.7529 206.587 22.0107 206.58 23.7812ZM207.852 23.7812C207.845 22.6533 208.706 21.8809 209.848 21.8809C210.969 21.8809 211.83 22.6533 211.83 23.7812C211.83 24.9365 210.969 25.6953 209.848 25.6953C208.706 25.6953 207.845 24.9365 207.852 23.7812ZM208.48 31.9023H216.861V30.8496H209.793V27.9238H208.48V31.9023Z" fill="white" fill-opacity="0.9"/>
<path d="M29.0001 14C22.3735 14 17 19.5084 17 26.3038C17 31.7399 20.4384 36.3519 25.2064 37.9788C25.8061 38.0927 26.0263 37.7119 26.0263 37.3869C26.0263 37.0936 26.0152 36.1243 26.01 35.0962C22.6716 35.8405 21.9671 33.6445 21.9671 33.6445C21.4212 32.2224 20.6347 31.8442 20.6347 31.8442C19.546 31.0806 20.7168 31.0963 20.7168 31.0963C21.9218 31.1831 22.5563 32.3642 22.5563 32.3642C23.6266 34.2452 25.3636 33.7014 26.0484 33.387C26.1561 32.5918 26.4671 32.049 26.8103 31.7418C24.1449 31.4306 21.3429 30.3756 21.3429 25.6612C21.3429 24.3179 21.8117 23.2203 22.5793 22.3587C22.4548 22.0488 22.044 20.7973 22.6956 19.1026C22.6956 19.1026 23.7033 18.7719 25.9965 20.3638C26.9537 20.0912 27.9803 19.9544 29.0001 19.9498C30.0199 19.9544 31.0473 20.0912 32.0063 20.3638C34.2967 18.7719 35.303 19.1026 35.303 19.1026C35.9562 20.7973 35.5452 22.0488 35.4207 22.3587C36.1901 23.2203 36.6556 24.3179 36.6556 25.6612C36.6556 30.3868 33.8484 31.4274 31.1763 31.732C31.6067 32.1138 31.9902 32.8626 31.9902 34.0105C31.9902 35.6567 31.9763 36.9817 31.9763 37.3869C31.9763 37.7144 32.1923 38.098 32.8006 37.9772C37.566 36.3485 41 31.7381 41 26.3038C41 19.5084 35.6273 14 29.0001 14Z" fill="white"/>
<path d="M21.5805 31.5816C21.5542 31.6421 21.4605 31.6602 21.3753 31.6187C21.2884 31.5789 21.2396 31.4964 21.2678 31.4357C21.2935 31.3734 21.3874 31.356 21.474 31.3978C21.5611 31.4375 21.6107 31.5208 21.5805 31.5816Z" fill="#161514"/>
<path d="M22.0649 32.1317C22.0078 32.1856 21.8961 32.1606 21.8204 32.0754C21.742 31.9905 21.7273 31.8769 21.7852 31.8223C21.8442 31.7684 21.9524 31.7936 22.031 31.8785C22.1093 31.9645 22.1246 32.0773 22.0649 32.1317Z" fill="#161514"/>
<path d="M22.5373 32.8327C22.4639 32.8846 22.3439 32.836 22.2697 32.7276C22.1963 32.6193 22.1963 32.4894 22.2713 32.4373C22.3457 32.3853 22.4639 32.4321 22.5391 32.5396C22.6123 32.6498 22.6123 32.7797 22.5373 32.8327Z" fill="#161514"/>
<path d="M23.1844 33.5114C23.1187 33.5851 22.9789 33.5653 22.8766 33.4648C22.7718 33.3666 22.7427 33.2272 22.8085 33.1536C22.875 33.0797 23.0156 33.1005 23.1187 33.2002C23.2227 33.2982 23.2544 33.4386 23.1844 33.5114Z" fill="#161514"/>
<path d="M24.0772 33.9047C24.0482 34.0002 23.9136 34.0435 23.7779 34.003C23.6424 33.9612 23.5538 33.8495 23.5811 33.753C23.6093 33.657 23.7446 33.6118 23.8812 33.6552C24.0165 33.6968 24.1054 33.8077 24.0772 33.9047Z" fill="#161514"/>
<path d="M25.0576 33.9776C25.061 34.078 24.946 34.1614 24.8035 34.1632C24.6603 34.1664 24.5445 34.0851 24.5429 33.9863C24.5429 33.8848 24.6554 33.8023 24.7986 33.7999C24.941 33.797 25.0576 33.8777 25.0576 33.9776Z" fill="#161514"/>
<path d="M25.9697 33.82C25.9867 33.918 25.8878 34.0187 25.7463 34.0455C25.6073 34.0713 25.4786 34.0108 25.4609 33.9136C25.4437 33.8131 25.5444 33.7124 25.6833 33.6864C25.8249 33.6614 25.9516 33.7203 25.9697 33.82Z" fill="#161514"/>
</svg>
