<svg width="320" height="51" viewBox="0 0 320 51" fill="none" xmlns="http://www.w3.org/2000/svg">
<rect width="320" height="51" rx="6" fill="white"/>
<path fill-rule="evenodd" clip-rule="evenodd" d="M38.04 26.2615C38.04 25.446 37.9668 24.6619 37.8309 23.9092H27V28.3576H33.1891C32.9225 29.7951 32.1123 31.013 30.8943 31.8285V34.714H34.6109C36.7855 32.7119 38.04 29.7637 38.04 26.2615Z" fill="#4285F4"/>
<path fill-rule="evenodd" clip-rule="evenodd" d="M26.9995 37.4996C30.1045 37.4996 32.7077 36.4698 34.6104 34.7134L30.8938 31.828C29.864 32.518 28.5467 32.9257 26.9995 32.9257C24.0042 32.9257 21.469 30.9028 20.5647 28.1846H16.7227V31.1641C18.6149 34.9225 22.504 37.4996 26.9995 37.4996Z" fill="#34A853"/>
<path fill-rule="evenodd" clip-rule="evenodd" d="M20.5652 28.1855C20.3352 27.4955 20.2045 26.7584 20.2045 26.0005C20.2045 25.2425 20.3352 24.5055 20.5652 23.8155V20.8359H16.7232C15.9443 22.3884 15.5 24.1448 15.5 26.0005C15.5 27.8562 15.9443 29.6125 16.7232 31.165L20.5652 28.1855Z" fill="#FBBC05"/>
<path fill-rule="evenodd" clip-rule="evenodd" d="M26.9995 19.0739C28.6879 19.0739 30.2038 19.6541 31.3956 20.7936L34.694 17.4952C32.7024 15.6395 30.0992 14.5 26.9995 14.5C22.504 14.5 18.6149 17.077 16.7227 20.8355L20.5647 23.815C21.469 21.0968 24.0042 19.0739 26.9995 19.0739Z" fill="#EA4335"/>
<path d="M142.691 20.6777H134.311V21.7441H141.406V21.7578C141.399 22.8994 141.399 24.1777 141.037 25.9277H132.943V26.9941H137.838V32.1758H139.15V26.9941H144.113V25.9277H142.35C142.691 24.1846 142.691 22.9199 142.691 21.7578V20.6777ZM154.832 20.4316H146.451V21.4707H153.547C153.547 22.2363 153.52 23.1729 153.267 24.4102H145.043V25.4492H156.254V24.4102H154.572C154.839 23.0771 154.839 22.0449 154.832 21.2383V20.4316ZM146.355 27.582H153.561V28.7578H146.369V32.0391H155.16V31H147.668V29.7559H154.846V26.543H146.355V27.582ZM168.354 29.6055H163.363V27.459H167.273V26.3926H159.795V24.6016H166.986V20.7734H158.482V21.8398H165.701V23.5625H158.51V27.459H162.078V29.6055H157.143V30.6992H168.354V29.6055ZM183.871 29.6055H178.881V27.459H182.791V26.3926H175.312V24.6016H182.504V20.7734H174V21.8398H181.219V23.5625H174.027V27.459H177.596V29.6055H172.66V30.6992H183.871V29.6055ZM194.467 21.1562H185.963V22.2227H193.182V22.4688C193.182 24.0137 193.182 25.8115 192.689 28.2656L194.016 28.3887C194.467 25.7705 194.467 24.0547 194.467 22.4688V21.1562ZM184.76 30.4258H195.93V29.3457H184.76V30.4258ZM207.018 19.9258H205.719V28.8262H207.018V19.9258ZM197.105 23.7812C197.112 25.5791 198.521 26.8301 200.373 26.8301C202.219 26.8301 203.627 25.5791 203.627 23.7812C203.627 22.0107 202.219 20.7529 200.373 20.7461C198.521 20.7529 197.112 22.0107 197.105 23.7812ZM198.377 23.7812C198.37 22.6533 199.231 21.8809 200.373 21.8809C201.494 21.8809 202.355 22.6533 202.355 23.7812C202.355 24.9365 201.494 25.6953 200.373 25.6953C199.231 25.6953 198.37 24.9365 198.377 23.7812ZM199.006 31.9023H207.387V30.8496H200.318V27.9238H199.006V31.9023Z" fill="black" fill-opacity="0.9"/>
</svg>
