<svg width="428" height="367" viewBox="0 0 428 367" fill="none" xmlns="http://www.w3.org/2000/svg">
<rect width="132" height="71" fill="#222228"/>
<rect y="278" width="132" height="89" fill="url(#paint0_linear_702_1130)"/>
<rect x="296" y="296" width="132" height="71" fill="url(#paint1_linear_702_1130)"/>
<rect x="296" width="132" height="120" fill="#222228"/>
<rect y="87" width="132" height="173" fill="#222228"/>
<rect x="148" y="342" width="132" height="21" fill="url(#paint2_linear_702_1130)"/>
<rect x="148" width="132" height="110" fill="#222228"/>
<rect x="148" y="126" width="132" height="201" fill="#222228"/>
<rect x="296" y="136" width="132" height="144" fill="#222228"/>
<g clip-path="url(#clip0_702_1130)">
<path d="M360.68 224.18C361.63 226.51 363.37 229.11 364.32 231.44C365.58 234.53 362.06 236.35 363.32 239.44L388.93 231.61L379.15 215.32L360.68 224.18Z" fill="#DE5749"/>
<path d="M380.55 217.77C381.2 215.193 381.463 212.534 381.33 209.88C381.383 204.467 379.455 199.221 375.91 195.13C374.123 193.123 371.878 191.577 369.366 190.623C366.854 189.669 364.149 189.335 361.48 189.65C358.606 190.085 355.941 191.41 353.86 193.44C352.907 194.355 352.103 195.415 351.48 196.58C350.6 198.28 349.04 199.51 348.56 201.41C348.19 203.291 348.352 205.237 349.03 207.03C349.81 209.45 350.94 211.85 350.9 214.4C350.9 215.59 350.61 216.77 350.66 217.96C350.79 220.96 353.13 223.37 355.61 224.82C358.76 226.66 362.7 228.07 366.34 227.15C370.054 226.369 373.606 224.955 376.84 222.97C378.647 221.724 379.96 219.884 380.55 217.77Z" fill="#DE5749"/>
<path d="M359.342 221.581C360.519 221.251 361.602 220.653 362.506 219.834L361.89 219.877L364.49 221.582C364.602 221.647 364.735 221.668 364.862 221.639C364.988 221.609 365.099 221.533 365.17 221.425C365.242 221.317 365.269 221.185 365.246 221.058C365.223 220.93 365.151 220.816 365.047 220.739L362.451 219.033C362.357 218.973 362.246 218.945 362.135 218.953C362.024 218.96 361.918 219.003 361.833 219.075C361.062 219.783 360.136 220.303 359.128 220.593C358.505 220.768 358.715 221.758 359.342 221.581Z" fill="#AD3D38"/>
<path d="M372.89 203.94C372.875 203.786 372.808 203.641 372.7 203.53C372.068 202.989 371.25 202.716 370.42 202.77C365.84 202.49 361.02 202.77 357.37 206.11C362.17 203.62 367.51 205.17 372.55 204.25C372.636 204.24 372.718 204.209 372.79 204.16C372.823 204.134 372.849 204.1 372.866 204.062C372.883 204.024 372.892 203.982 372.89 203.94Z" fill="#141419"/>
<path d="M419.32 280.44H304C304.67 280.44 306.35 278.55 306.83 278.15C309.21 276.15 311.54 274.1 313.83 271.95C317.57 268.54 320.821 264.63 323.49 260.33C325.89 256.23 327.89 252.1 330.78 248.33C336.41 240.88 344.19 233.87 353.78 232.54C357.198 232.098 360.656 232.072 364.08 232.46C364.246 232.924 364.461 233.37 364.72 233.79C364.924 234.14 365.155 234.475 365.41 234.79C366.044 235.371 366.853 235.723 367.71 235.79L368.33 235.88C372.518 236.332 376.754 235.816 380.71 234.37C383.35 233.48 387.59 229.91 389.97 231.6C391.58 232.73 393.24 233.79 394.81 234.98C398.35 237.66 400.47 241.54 402.81 245.21C405.15 248.88 407.51 252.69 409.72 256.51C413.5 263.07 418.72 271.06 419.33 278.83C419.372 279.366 419.369 279.905 419.32 280.44Z" fill="#141419"/>
<path d="M362.44 227.38C362.44 227.38 374.78 228.09 380.55 217.77L380.32 218.44C380.32 218.44 373.32 232.44 363.26 229.24L362.26 227.36L362.44 227.38Z" fill="#AD3D38"/>
<path d="M379.32 219.44C383.905 214.578 386.416 208.122 386.32 201.44L382.18 196.44L379.18 203.76C379.18 203.76 380.49 216.77 379.32 219.44Z" fill="#DE5749"/>
<path d="M381.98 187.31C384.279 189.317 385.914 191.974 386.67 194.93C387.222 196.864 387.557 198.852 387.67 200.86C387.92 205.66 384.87 203.99 381.67 203.61C380.227 203.504 378.777 203.598 377.36 203.89C374.97 204.24 347.32 205.75 347.32 206.44C346.66 195.44 352.32 184.84 362.93 181.74C364.466 181.266 366.062 181.016 367.67 181C371.16 181 373.45 182.53 376.62 184C378.548 184.856 380.351 185.97 381.98 187.31Z" fill="#26266D"/>
<path d="M348.56 202.26C344.26 204.55 344.96 204.85 340.66 207.15C340.383 207.265 340.139 207.447 339.95 207.68C339.34 208.55 340.39 210.27 341.44 210.04C358.32 206.44 365.19 214.69 371.32 211.44C377.45 208.19 383.07 203.26 384.32 196.44L348.56 202.26Z" fill="#26266D"/>
<path d="M384.82 214.44C386.753 214.44 388.32 212.425 388.32 209.94C388.32 207.455 386.753 205.44 384.82 205.44C382.887 205.44 381.32 207.455 381.32 209.94C381.32 212.425 382.887 214.44 384.82 214.44Z" fill="#DE5749"/>
<path d="M347.32 202.68C347.32 202.68 355.59 192.28 381.69 203.61C381.71 203.61 362.87 189.44 347.32 202.68Z" fill="#232368"/>
<path d="M412.17 238.02L402.71 232.67C399.482 230.654 396.015 229.048 392.39 227.89C389.224 226.924 385.837 226.955 382.69 227.98C381.19 228.54 379.78 229.49 378.31 230.18C376.782 230.916 375.197 231.524 373.57 232C372.033 232.41 370.469 232.707 368.89 232.89L366.52 233.16C365.85 233.15 365.181 233.197 364.52 233.3C364.21 233.944 364.165 234.684 364.395 235.361C364.625 236.038 365.111 236.598 365.75 236.92C366.712 237.448 367.783 237.749 368.88 237.8C370.517 237.978 372.167 238.012 373.81 237.9C375.124 237.841 376.421 237.571 377.65 237.1C379.164 238.517 380.753 239.852 382.41 241.1L388.85 246.46C391.91 249.01 395.14 251.64 399.04 252.46C402.94 253.28 407.67 251.64 408.94 247.86C409.3 246.78 409.39 245.54 410.15 244.68C410.634 244.198 411.213 243.82 411.85 243.57C413.08 243.02 414.39 242.57 414.66 241.37C414.96 239.91 413.47 238.76 412.17 238.02Z" fill="#141419"/>
<path d="M371.75 235.44C371.83 235.92 371.2 236.17 370.75 236.22C370.3 236.27 369.92 236.31 369.51 236.33C368.218 236.425 366.921 236.425 365.63 236.33C364.42 236.35 363.244 235.931 362.32 235.15C361.794 234.548 361.447 233.81 361.32 233.02C361.112 232.179 361.007 231.316 361.01 230.45C361.009 229.94 361.203 229.448 361.553 229.077C361.902 228.705 362.38 228.481 362.89 228.45C363.348 229.295 363.943 230.058 364.65 230.71C364.861 230.964 365.085 231.208 365.32 231.44C365.98 232.06 366.04 233.05 366.89 233.36L371.03 234.82C371.32 234.93 371.69 235.09 371.75 235.44Z" fill="#141419"/>
<path d="M360.95 232.18C362.402 233.971 364.251 235.399 366.35 236.35C366.35 236.35 362.58 237.93 360.95 232.18Z" fill="#0C0C0F"/>
<path d="M367.97 236.54C369.28 236.54 370.6 236.54 371.91 236.44C374.202 236.379 376.464 235.894 378.58 235.01C379.754 234.357 381.119 234.134 382.44 234.38C384.523 234.892 386.48 235.825 388.19 237.12C386.534 236.16 384.712 235.522 382.82 235.24C381.345 235.022 379.839 235.267 378.51 235.94C375.23 237.44 371.32 238.76 367.97 236.54Z" fill="#0C0C0F"/>
<path d="M389.44 271.66C389.44 271.66 390.32 279.44 386.63 280.44H392.32C392.32 280.44 391.32 272.44 389.44 271.66Z" fill="#0C0C0F"/>
<path d="M371.76 236.79C369.887 245.324 369.424 254.107 370.39 262.79C370.46 263.43 371.46 263.43 371.39 262.79C370.43 254.195 370.88 245.501 372.72 237.05C372.86 236.42 371.9 236.15 371.72 236.78L371.76 236.79Z" fill="#0C0C0F"/>
<path d="M363.17 235.03C361.293 239.237 360.034 243.693 359.43 248.26C359.35 248.9 360.35 248.89 360.43 248.26C361.021 243.866 362.237 239.58 364.04 235.53C364.3 234.95 363.43 234.44 363.17 235.03Z" fill="#0C0C0F"/>
<path fill-rule="evenodd" clip-rule="evenodd" d="M386.381 211.02C386.419 210.989 386.456 210.956 386.491 210.921C386.772 210.639 386.93 210.258 386.93 209.86C386.93 209.462 386.772 209.081 386.491 208.799C386.21 208.518 385.828 208.36 385.43 208.36C385.032 208.36 384.651 208.518 384.37 208.799C384.088 209.081 383.93 209.462 383.93 209.86C383.93 210.258 384.088 210.639 384.37 210.921C384.574 211.125 384.832 211.265 385.111 211.326L383.72 214.51C383.657 214.625 383.64 214.759 383.674 214.886C383.707 215.013 383.788 215.121 383.9 215.19C384.014 215.256 384.149 215.273 384.277 215.24C384.404 215.206 384.513 215.123 384.58 215.01L386.381 211.02Z" fill="white"/>
</g>
<g clip-path="url(#clip1_702_1130)">
<path d="M210.324 250.298L210.285 250.27C209.367 249.581 208.346 249.042 207.261 248.67C207.038 248.57 206.791 248.538 206.55 248.578C206.149 248.677 205.935 249.101 205.775 249.483C203.252 255.54 201.177 258.208 196.94 266.392C198.945 265.1 201.17 264.189 203.504 263.706C204.446 263.51 205.463 263.35 206.156 262.691C206.476 262.352 206.741 261.964 206.941 261.543C208.455 258.738 209.846 255.871 211.113 252.942C211.274 252.626 211.369 252.281 211.391 251.927C211.394 251.25 210.865 250.708 210.324 250.298Z" fill="#3C464C"/>
<path d="M218.616 241.968C214.308 244.551 209.944 246.899 207.805 250.416C205.487 254.307 205.797 259.063 206.177 263.343C206.6 267.974 207.431 272.784 210.879 276.928C214.241 281.111 219.127 283.42 223.868 285.369C228.197 287.193 232.97 289.163 237.611 288.786C241.787 288.43 245.486 285.914 249.428 283.516C253.447 281.079 257.623 278.817 260.143 275.115C263.043 270.932 263.739 265.683 264.301 260.941C264.93 255.793 265.196 250.434 262.318 246.009C259.354 241.626 254.03 239.538 248.667 237.896C243.66 236.406 238.006 234.864 232.348 235.758C227.315 236.517 223.019 239.339 218.616 241.968Z" fill="#DE5749"/>
<path d="M264.617 249.051C264.019 248.816 263.366 248.759 262.737 248.888C260.796 249.253 258.887 249.775 257.03 250.448C256.319 250.698 255.608 251 255.199 251.61C254.889 252.171 254.728 252.803 254.734 253.445C254.57 255.561 243.969 253.088 245.334 254.713L253.152 259.601C253.721 259.711 254.237 260.006 254.623 260.439C255.008 260.872 255.241 261.421 255.285 261.999C255.54 263.781 255.69 267.137 254.126 267.593C249.485 268.94 246.94 272.015 245.458 275.36C244.82 276.84 244.331 278.38 243.997 279.957C243.123 283.915 243.109 287.307 242.149 287.596C244.282 286.947 256.539 280.406 259.279 277.84C260.947 276.302 262.248 274.407 263.085 272.296C263.771 270.679 264.247 268.694 265.033 265.744C266.216 261.315 265.658 256.598 265.971 252.027C266.042 250.904 266.092 249.65 264.617 249.051Z" fill="black"/>
<path d="M243.45 282.907C243.12 284.834 242.707 286.826 242.768 288.8C242.872 291.09 243.571 293.312 244.794 295.249C234.96 291.925 216.636 288.761 206.465 286.716C211.941 284.289 212.506 278.061 211.44 271.527L243.45 282.907Z" fill="#DE5749"/>
<path d="M198.671 242.663C197.54 250.555 195.494 258.288 192.576 265.705C192.541 265.779 192.526 265.862 192.533 265.943C192.605 266.343 194.055 266.638 194.385 266.702C196.261 267.077 197.061 265.708 197.544 264.133C199.389 258.116 202.875 252.8 205.829 247.306" fill="#3C464C"/>
<path d="M248.127 301.042C251.418 303.18 254.005 306.198 256.116 309.48C258.227 312.761 259.958 316.406 261.614 319.994C262.68 322.31 263.728 324.779 263.512 327.387C263.494 327.615 263.849 327.615 263.867 327.387C264.059 325.068 263.266 322.837 262.346 320.749C261.504 318.847 260.604 316.965 259.677 315.106C257.9 311.543 255.903 308.069 253.28 305.079C251.826 303.411 250.152 301.949 248.304 300.732C248.113 300.608 247.949 300.918 248.123 301.042H248.127Z" fill="white"/>
<path d="M231.029 290.158C233.954 291.323 237.344 291.526 240.312 292.687C243.628 293.991 246.745 295.754 249.573 297.925C254.862 301.972 259.293 307.075 263.1 312.533C265.609 316.117 268.48 320.112 270.108 324.198C270.62 325.189 271.078 326.479 270.364 327.33C269.816 327.979 268.853 328.043 268.007 328.043L237.934 327.907L152.997 327.526C157.176 320.4 161.458 313.214 167.056 307.121C172.653 301.028 179.715 296.008 187.775 294.191C193.141 292.983 199.361 292.944 203.057 288.868C203.828 288.02 206.61 284.895 207.73 284.731C208.348 284.646 210.267 284.781 210.889 284.731C214.465 284.375 215.026 285.665 217.958 285.615C220.309 285.579 222.646 285.979 224.853 286.794C226.885 287.542 228.318 288.932 230.183 289.844C230.485 289.919 230.756 290.036 231.029 290.158Z" fill="#141419"/>
<path d="M253.5 269.132C255.791 269.132 257.648 267.271 257.648 264.974C257.648 262.678 255.791 260.816 253.5 260.816C251.21 260.816 249.353 262.678 249.353 264.974C249.353 267.271 251.21 269.132 253.5 269.132Z" fill="#DE5749"/>
<path d="M208.018 244.808C216.717 241.426 225.109 237.299 233.101 232.473C237.291 229.943 241.336 227.182 245.291 224.299C245.765 223.95 246.239 223.594 246.713 223.23C247.118 222.931 247.53 222.301 248.017 222.179C248.61 222.037 249.296 222.657 249.687 223.02C253.465 226.53 257.545 229.647 261.543 232.89C264.012 234.892 266.483 236.891 268.956 238.886C270.829 240.397 274.611 242.414 275.794 244.512C277.312 247.199 269.397 250.306 267.681 251.449C263.821 254.008 260.136 256.815 256.521 259.708C251.038 264.094 245.803 269.685 239.228 272.371C231.651 275.482 229.537 268.324 226.434 263.107C224.863 260.464 223.044 257.92 220.748 255.864C218.292 253.673 215.236 252.361 212.574 250.466C208.622 247.665 204.045 241.655 198.664 242.428C212.488 235.572 225.845 227.809 238.649 219.19C239.584 218.559 240.731 217.747 241.915 218.05C242.532 218.247 243.11 218.55 243.624 218.944C245.068 219.923 246.573 220.808 248.131 221.591" fill="#3C464C"/>
<path d="M245.451 275.36C244.813 276.84 244.323 278.38 243.99 279.957C236.804 284.642 220.35 285.212 211.82 278.011C214.592 279.96 224.842 284.777 245.451 275.36Z" fill="#AD3D38"/>
<path d="M215.851 257.022C217.193 257.06 218.512 257.384 219.719 257.973C220.926 258.562 221.994 259.403 222.852 260.439" fill="#AD3D38"/>
</g>
<g opacity="0.9" clip-path="url(#clip2_702_1130)">
<path d="M180.762 77.2764C187.585 76.6027 194.28 74.7771 200.181 71.3213C200.975 70.9193 201.669 70.3436 202.209 69.6371C202.521 69.1145 202.749 68.5462 202.884 67.953C204.53 61.9575 203.898 54.7426 199.167 50.6805C195.754 47.7433 191.982 47.8208 187.416 46.9147C186.132 46.3185 184.682 47.6591 184.118 48.9963C183.553 50.3335 183.185 52.0278 181.87 52.7519C181.063 53.1898 180.086 53.1359 179.197 53.3717C176.379 54.1127 175.25 58.2658 177.305 60.3306C176.216 62.3819 173.442 62.6042 171.16 63.0791C168.879 63.554 166.253 65.5312 167.166 67.6599C167.94 69.4856 170.954 70.1491 170.772 72.1229C170.701 72.8639 170.147 73.4702 169.984 74.1978C169.721 75.3564 170.559 76.5556 171.627 77.0675C172.695 77.5795 173.938 77.6132 175.131 77.593C177 77.5728 178.886 77.465 180.762 77.2764Z" fill="black"/>
<path d="M230.996 76.02C224.172 75.3295 217.477 73.5208 211.573 70.0649C210.786 69.667 210.098 69.0971 209.562 68.3976C209.249 67.8756 209.02 67.3071 208.886 66.7135C207.241 60.7179 207.889 53.5031 212.604 49.441C216.017 46.5038 219.789 46.5813 224.355 45.6752C225.639 45.079 227.089 46.4196 227.653 47.7568C228.218 49.094 228.589 50.7883 229.904 51.5124C230.712 51.9503 231.685 51.8964 232.574 52.1322C235.392 52.8766 236.521 57.0297 234.466 59.0911C235.555 61.1423 238.333 61.3646 240.61 61.8396C242.888 62.3145 245.514 64.285 244.605 66.4238C243.831 68.2494 240.817 68.913 240.999 70.8868C241.07 71.6278 241.624 72.2341 241.79 72.9616C242.05 74.1203 241.212 75.3194 240.144 75.8314C239.076 76.3434 237.832 76.3771 236.643 76.3569C234.757 76.3164 232.871 76.212 230.996 76.02Z" fill="black"/>
<path d="M219.863 36.0318C223.442 39.3462 224.544 43.6542 225.541 47.4166C226.646 51.755 227.461 56.2112 226.099 59.8961C224.703 63.7831 221.367 66.0802 218.153 67.7778C214.939 69.4755 211.279 70.6375 207.298 69.3037C203.706 68.1282 200.286 64.9653 196.639 61.9339C193.368 59.3134 189.427 56.7333 186.615 53.0248C184.023 49.7306 184.391 47.1977 184.682 45.1902C185.067 42.6337 185.993 40.1917 187.876 38.4772C190.174 36.3956 193.283 34.725 191.688 31.9596C189.032 27.4731 191.718 25.6609 197.247 26.2099C200.738 26.567 204.787 28.8743 208.944 30.6527C212.746 32.3335 217.089 33.5562 219.863 36.0318Z" fill="#DE5749"/>
<path d="M224.389 49.2119C226.567 49.2119 228.333 47.452 228.333 45.2811C228.333 43.1102 226.567 41.3503 224.389 41.3503C222.211 41.3503 220.445 43.1102 220.445 45.2811C220.445 47.452 222.211 49.2119 224.389 49.2119Z" fill="#DE5749"/>
<path d="M191.833 60.9167C194.011 60.9167 195.777 59.1568 195.777 56.9859C195.777 54.815 194.011 53.0551 191.833 53.0551C189.655 53.0551 187.889 54.815 187.889 56.9859C187.889 59.1568 189.655 60.9167 191.833 60.9167Z" fill="#DE5749"/>
<path d="M193.864 62.2438C196.043 62.2438 197.808 60.4839 197.808 58.313C197.808 56.1421 196.043 54.3822 193.864 54.3822C191.686 54.3822 189.92 56.1421 189.92 58.313C189.92 60.4839 191.686 62.2438 193.864 62.2438Z" fill="#DE5749"/>
<path d="M199.917 50.3133C200.518 50.3133 201.006 49.8278 201.006 49.2288C201.006 48.6298 200.518 48.1442 199.917 48.1442C199.316 48.1442 198.829 48.6298 198.829 49.2288C198.829 49.8278 199.316 50.3133 199.917 50.3133Z" fill="#222228"/>
<path d="M212.756 43.8227C213.357 43.8227 213.844 43.3371 213.844 42.7381C213.844 42.1391 213.357 41.6535 212.756 41.6535C212.155 41.6535 211.668 42.1391 211.668 42.7381C211.668 43.3371 212.155 43.8227 212.756 43.8227Z" fill="#222228"/>
<path d="M206.335 39.4944L207.126 41.5356C207.126 41.5356 209.126 37.8305 213.953 38.6827C213.953 38.6928 212.178 37.3455 206.335 39.4944Z" fill="black"/>
<path d="M198.755 43.2332L199.89 45.1026C199.89 45.1026 195.737 44.4289 193.445 48.7336C193.445 48.7336 193.459 46.5105 198.755 43.2332Z" fill="black"/>
<path d="M224.419 59.4717H202.401V79.1862H224.419V59.4717Z" fill="#DE5749"/>
<path d="M231.567 74.3965C234.348 75.4979 237.572 75.6899 240.394 76.788C243.547 78.0212 246.512 79.6878 249.201 81.7394C254.23 85.5657 258.445 90.3891 262.064 95.5493C264.43 98.9378 267.177 102.714 268.729 106.577C269.215 107.513 269.651 108.733 268.969 109.538C268.451 110.151 267.536 110.211 266.731 110.211L238.133 110.083L157.362 109.723C155.712 107.8 165.408 96.1926 170.728 90.4329C176.047 84.6731 182.766 79.9272 190.431 78.2094C195.537 77.0676 201.452 77.0305 204.963 73.1772C206.872 71.0922 211.006 71.2943 213.598 70.8194C217.613 70.0919 221.783 69.7719 225.69 71.2C227.623 71.9074 228.985 73.221 230.759 74.0833C231.04 74.1708 231.303 74.282 231.567 74.3965Z" fill="#141419"/>
<path d="M202.171 42.8863C203.259 43.9045 204.437 44.8211 205.693 45.6247C206.906 46.396 208.268 47.2381 209.721 47.4368C210.052 47.4823 210.388 47.4823 210.718 47.4368C211.056 47.3964 211.472 47.1606 211.79 47.2381C212.222 47.3425 212.466 47.9387 212.533 48.326C212.651 49.1782 212.195 50.155 211.33 50.3975C211.204 50.4363 211.098 50.5225 211.035 50.6378C210.972 50.7531 210.956 50.8884 210.991 51.015C211.026 51.1417 211.11 51.2497 211.223 51.3161C211.337 51.3826 211.472 51.4023 211.6 51.371C213.31 50.8893 214.132 48.6056 213.145 47.1269C213.01 46.9056 212.832 46.7131 212.622 46.5605C212.412 46.4079 212.174 46.2982 211.921 46.2377C211.303 46.1266 210.701 46.4903 210.069 46.4533C208.782 46.3758 207.528 45.5607 206.457 44.9005C205.176 44.1061 203.976 43.189 202.874 42.1621C202.398 41.7175 201.678 42.4316 202.158 42.8762L202.171 42.8863Z" fill="black"/>
<path d="M191.793 57.3699C190.931 53.3785 190.103 49.2288 191.005 45.1632C191.779 41.7108 193.972 38.4941 197.382 37.2175C198.133 36.9379 199.863 36.6718 200.282 35.8971C200.819 34.9069 199.471 34.1288 199.866 33.2025C200.88 33.344 201.502 34.4892 202.489 34.8159C204.358 35.439 206.686 34.3107 208.636 34.3713C214.331 34.5498 219.224 38.0528 223.635 41.2998C222.983 40.8114 223.702 38.2482 223.675 37.5375C223.52 33.3271 219.931 29.6288 216.727 27.2676C213.067 24.6438 208.708 23.1631 204.202 23.0135C200.357 22.8068 196.527 23.6351 193.114 25.4117C188.572 27.8672 185.794 32.0809 184.327 36.9177C183.13 40.8425 182.794 44.9778 183.34 49.0435C183.584 50.859 184.047 52.7318 185.267 54.0959C186.561 55.5476 188.69 55.6622 189.947 56.9219" fill="black"/>
<path d="M204.219 110.595C204.219 111.606 204.895 112.707 206.477 113.405C207.491 113.852 208.866 113.826 210.299 114.058C211.482 114.25 212.749 114.755 214.111 114.755C215.473 114.755 216.737 114.25 217.923 114.058C219.353 113.826 220.732 113.852 221.742 113.405C223.324 112.707 224 111.602 224 110.595C224 109.588 223.324 108.483 221.742 107.783C220.728 107.338 219.353 107.365 217.923 107.133C216.737 106.941 215.473 106.436 214.111 106.436C212.749 106.436 211.482 106.941 210.299 107.133C208.87 107.362 207.491 107.338 206.477 107.783C204.895 108.483 204.219 109.588 204.219 110.595Z" fill="#DE5749"/>
<path d="M244.751 102.101C243.065 102.233 241.385 102.345 239.708 102.437C235.268 102.687 230.827 102.794 226.379 102.737C223.767 102.704 219.036 102.488 217.954 105.62C216.494 109.868 217.954 110.589 218.576 114.018C219.171 117.352 224.47 117.248 227.701 117.777C234.842 118.949 242.084 119.174 249.306 119.265C253.176 119.316 270.398 124.392 271.929 116.891C272.311 115.031 271.03 112.849 270.415 111.097C269.607 108.81 268.688 106.547 267.712 104.33C266.062 100.625 264.91 99.8607 260.952 100.447C255.589 101.242 250.138 101.68 244.751 102.101Z" fill="#141419"/>
<path d="M210.82 57.0398C211.836 56.3609 212.679 55.4557 213.284 54.3957L212.712 54.6281L215.713 55.4399C215.84 55.4675 215.973 55.4456 216.084 55.3785C216.195 55.3115 216.277 55.2044 216.311 55.0795C216.345 54.9546 216.33 54.8214 216.268 54.7073C216.207 54.5932 216.104 54.507 215.98 54.4664L212.983 53.6513C212.875 53.6241 212.761 53.6319 212.657 53.6737C212.554 53.7155 212.467 53.7891 212.408 53.8837C211.895 54.7966 211.177 55.5783 210.31 56.1674C209.772 56.5278 210.279 57.4036 210.82 57.0398Z" fill="#AD3D38"/>
<path d="M224.419 62.8535V67.6297C220.485 69.1521 213.942 70.1929 203.327 70.166C203.327 70.166 218.451 69.8797 224.419 62.8535Z" fill="#AD3D38"/>
<path d="M202.53 83.7671C202.53 83.7671 202.401 106.961 188.39 110.171C190.629 108.422 192.658 106.42 194.436 104.206C197.934 99.8001 199.454 93.9157 201.262 88.6881C201.421 88.2301 201.935 86.2091 202.53 83.7671Z" fill="#0C0C0F"/>
<path d="M226.498 103.65C226.498 103.65 243.683 99.406 251.56 101.683L226.498 103.65Z" fill="#0C0C0F"/>
<path d="M198.829 60.4451C198.829 60.4451 203.04 62.9983 203.375 67.7543L202.043 68.2528L198.829 60.4451Z" fill="#AD3D38"/>
<path d="M190.11 55.2377C191.123 54.5944 192.675 55.3253 194.392 56.4705C195.49 57.2048 196.933 57.9357 198.079 59.2291C199.032 60.3003 199.633 61.7891 200.502 63.1599C201.37 64.5308 202.462 65.7097 203.026 67.0267C203.702 68.6132 203.75 70.2266 203.942 71.5301C204.243 73.5713 204.246 75.2689 203.222 75.9089C202.198 76.5488 200.661 75.8247 198.944 74.6761C197.845 73.9452 196.402 73.2109 195.253 71.9208C194.304 70.8497 193.702 69.3576 192.834 67.9867C191.965 66.6158 190.87 65.4369 190.309 64.1233C189.633 62.5334 189.582 60.92 189.39 59.6165C189.089 57.5821 189.089 55.871 190.11 55.2377Z" fill="#CE4E4A"/>
<path d="M202.53 83.7671L188.389 110.171C181.522 115.56 172.33 119.073 164.323 116.032C163.696 115.768 163.088 115.46 162.505 115.109C161.35 114.474 160.242 113.759 159.187 112.97C158.467 112.418 157.301 111.623 157.081 110.656C156.946 110.006 156.979 109.333 157.176 108.699C157.365 108.167 157.852 107.689 158.213 107.247C158.926 106.388 159.271 108.116 160.126 107.399C162.066 105.771 163.99 104.125 165.898 102.461C170.6 98.3876 175.27 94.2795 179.907 90.1365C184.084 86.4246 188.252 82.7016 192.411 78.9673C194.214 77.346 196.016 75.7236 197.818 74.1001L204.993 73.1368C205.057 73.1267 203.645 79.1862 202.53 83.7671Z" fill="#141419"/>
</g>
<g clip-path="url(#clip3_702_1130)">
<path d="M68.5679 211.639C73.9668 210.129 79.3893 207.42 84.7883 205.91C79.236 202.152 75.3054 196.425 73.7855 189.88L73.6244 189.172L73.0737 190.719C71.3177 195.676 56.5544 200.892 58.9114 205.586C60.7111 209.172 57.6053 210.274 59.3916 211.531C60.7816 212.511 62.6552 213.29 64.2937 212.832L68.5679 211.639Z" fill="#DE5749"/>
<path d="M44.8165 192.275C45.8976 195.605 46.7068 198.796 48.8254 201.104C51.2059 203.8 54.5132 204.933 57.3436 206.068C60.3654 207.312 63.5618 208.673 66.1338 207.716C68.8198 206.705 70.042 203.551 71.2507 200.484C72.3587 197.751 73.9771 194.695 73.7353 191.093C73.5104 187.939 71.4723 184.869 69.9278 181.634C68.5008 178.756 67.5506 176.521 65.6838 175.905C63.2664 175.113 60.6945 176.757 58.3744 177.165C55.6178 177.644 53.4824 177.125 51.7734 175.143C48.906 171.969 46.5389 173.816 45.0347 176.983C44.1214 178.965 42.3486 181.313 42.3486 184.201C42.3553 186.87 43.9771 189.755 44.8165 192.275Z" fill="#DE5749"/>
<path d="M40.5993 185.711C40.4516 182.382 39.545 178.907 40.8108 175.706C42.5064 171.416 46.324 167.302 50.7627 165.812C55.8461 164.127 61.7286 165.206 64.8108 167.996C64.8108 167.996 76.8981 168.869 73.6883 185.711L67.3894 189.199L62.9776 178.078C62.9776 178.078 58.4247 181.472 56.5209 177.088V180.38L40.7403 189.185L40.5993 185.711Z" fill="#141419"/>
<path d="M77.3513 258.682C83.7307 258.469 90.1437 258.429 96.5264 258.833C104.34 259.329 113.65 259.881 118.411 253.654C122.229 248.677 121.205 241.563 119.277 235.588C116.83 227.999 113.25 220.827 108.657 214.318C105.186 209.401 100.549 204.565 94.5555 203.986C87.9948 203.352 81.142 203.457 75.5415 206.948C70.3742 210.169 64.8779 215.17 58.8711 209.249C56.5208 206.941 53.0659 206.712 49.9635 206.729C46.2701 206.752 42.4224 206.58 38.7727 207.066C31.3222 208.04 27.0849 213.468 23.7172 219.743C19.7838 227.196 16.5478 234.999 14.0508 243.052C11.8113 250.129 12.7077 257.169 20.4302 259.901C24.3552 261.283 28.6328 261.091 32.7894 260.882L65.123 259.251C69.2024 259.019 73.2886 258.816 77.3513 258.682Z" fill="#141419"/>
<path d="M74.7057 185.711C74.9105 187.864 73.769 189.836 72.1506 190.109C70.5323 190.382 69.0583 188.858 68.8501 186.705C68.642 184.552 69.7869 182.58 71.4019 182.324C73.0169 182.068 74.4975 183.554 74.7057 185.711Z" fill="#DE5749"/>
<path d="M60.2715 198.867C54.7599 202.202 48.7283 204.583 42.4293 205.91C43.0672 197.344 42.2614 187.807 35.6738 182.014C41.1098 181.482 46.0824 181.27 51.0952 179.089C51.5955 178.87 52.1394 178.641 52.6699 178.773C53.0026 178.882 53.3066 179.065 53.5597 179.308C58.5961 183.527 63.0482 187.777 62.4271 195.315C62.37 196.013 62.4506 196.754 62.0913 197.361C61.7288 197.889 61.2421 198.319 60.6744 198.614L60.2715 198.867Z" fill="white"/>
<path d="M29.2204 213.074C29.2943 212.928 29.3614 212.78 29.4218 212.629C29.6184 212.024 29.7468 211.399 29.8046 210.766C30.3385 206.833 31.3122 202.975 32.2825 199.123C29.6367 202.493 25.0469 203.504 20.8499 204.306L18.7649 210.294C18.0464 212.356 17.2708 214.506 15.6826 216.003C19.5573 218.607 25.3222 217.832 28.3743 214.291C28.7048 213.921 28.989 213.513 29.2204 213.074Z" fill="white"/>
<path d="M113.771 205.698C110.495 207.201 107.677 209.554 105.609 212.515C104.803 213.674 104.081 214.321 102.671 213.677C94.1261 209.785 89.3584 199.544 86.9375 190.965C86.8368 190.628 85.5945 185.546 86.266 185.708C91.9579 187.015 97.7697 187.726 103.608 187.827C103.809 191.391 104.833 194.86 106.598 197.959C108.363 201.059 110.821 203.704 113.778 205.687L113.771 205.698Z" fill="white"/>
<path d="M92.4944 257.081H53.7646V259.517H92.4944V257.081Z" fill="#8E8E8E"/>
<path d="M59.3882 207.059C59.3882 207.059 70.804 211.757 75.2158 194.277C75.7452 195.486 76.3508 196.66 77.0289 197.792C77.0289 197.792 68.5678 211.639 59.3882 207.059Z" fill="#AD3D38"/>
<path d="M59.3076 204.016C60.0413 202.977 60.9875 202.107 62.083 201.464C63.1785 200.821 64.3981 200.421 65.6602 200.289" fill="#AD3D38"/>
<path d="M78.4058 239.116C78.4058 239.116 95.4791 234.867 103.306 237.148L78.4058 239.116Z" fill="#0C0C0F"/>
<path d="M40.1494 232.343C40.1494 232.343 42.671 225.202 43.0336 222.102C43.0336 222.102 44.7493 230.156 40.1494 232.343Z" fill="#0C0C0F"/>
<path d="M76.7572 259.517H35.9324C35.5531 259.499 35.1888 259.364 34.8885 259.13C34.5883 258.897 34.3666 258.577 34.2536 258.213L26.9542 231.992C26.9491 231.979 26.9476 231.964 26.9496 231.95C26.9517 231.935 26.9573 231.921 26.966 231.91C26.9746 231.898 26.9861 231.889 26.9993 231.882C27.0125 231.876 27.027 231.874 27.0415 231.874H69.9313C69.9659 231.876 69.9992 231.888 70.0267 231.909C70.0543 231.93 70.0749 231.959 70.0857 231.992L77.694 258.213C77.7548 258.362 77.7769 258.524 77.758 258.684C77.7392 258.843 77.6801 258.996 77.5864 259.126C77.4927 259.257 77.3674 259.361 77.2223 259.43C77.0772 259.498 76.9171 259.528 76.7572 259.517Z" fill="#8E8E8E"/>
<path d="M54.8218 247.922C54.6677 248.414 54.4414 248.881 54.1503 249.307C53.7474 249.896 53.3277 250.493 52.6696 250.503C52.0115 250.513 51.8134 250.112 51.0714 250.112C50.3294 250.112 50.0977 250.493 49.4866 250.513C48.8755 250.533 48.3652 249.869 47.9589 249.283C47.1296 248.08 46.4916 245.873 47.3478 244.397C47.5468 244.033 47.8378 243.728 48.1915 243.514C48.5452 243.299 48.949 243.182 49.3624 243.174C49.9835 243.174 50.5744 243.595 50.9539 243.595C51.3333 243.595 52.0552 243.069 52.8106 243.15C53.1587 243.163 53.499 243.257 53.8053 243.423C54.1115 243.59 54.3755 243.825 54.5767 244.11C54.2624 244.306 54.0021 244.579 53.8196 244.902C53.6372 245.225 53.5385 245.589 53.5325 245.96C53.5337 246.379 53.6576 246.788 53.8886 247.137C54.1196 247.486 54.4476 247.758 54.8319 247.922H54.8218ZM52.317 242.361C52.6799 241.926 52.8604 241.367 52.8207 240.801C52.2679 240.856 51.7566 241.12 51.3904 241.539C51.2088 241.743 51.0703 241.981 50.9831 242.24C50.896 242.499 50.8621 242.773 50.8834 243.045C51.1572 243.047 51.4278 242.987 51.6758 242.87C51.9238 242.754 52.1428 242.583 52.317 242.371" fill="black"/>
<path d="M54.5 248.5C55.3 248.1 55.5 245 54.5 244L53.5 244.5L53 246L54.5 248.5Z" fill="black"/>
</g>
<g opacity="0.9">
<path d="M348.868 117.366C371.468 117.318 386.571 118.517 409.171 118.468C411.618 118.468 414.167 118.693 416.55 118.008C423.26 116.085 422.466 107.763 420.977 102.478C419.641 97.7411 417.004 93.489 414.188 89.5004C411.015 85 406.579 81.5293 400.402 78.1071L396.602 78.8309L396.13 78.7915C370.199 76.6715 343.536 86.2205 324.839 104.313C321.557 107.493 318.565 113.147 322.068 116.082C323.582 117.363 325.771 117.421 327.764 117.418L348.868 117.366Z" fill="#141419"/>
<path d="M352.75 109.234C352.75 110.316 353.473 111.503 355.172 112.263C356.256 112.741 357.73 112.714 359.262 112.963C360.531 113.169 361.888 113.714 363.344 113.714C364.8 113.714 366.157 113.169 367.426 112.963C368.958 112.714 370.435 112.741 371.516 112.263C373.209 111.512 373.939 110.325 373.939 109.234C373.939 108.144 373.212 106.963 371.516 106.206C370.432 105.727 368.958 105.755 367.426 105.506C366.157 105.3 364.8 104.758 363.344 104.758C361.888 104.758 360.531 105.3 359.262 105.506C357.73 105.755 356.256 105.727 355.172 106.209C353.473 106.966 352.75 108.15 352.75 109.234Z" fill="#DE5749"/>
<path d="M378.172 60.4597C380.536 64.4725 380.897 68.9972 381.454 73.0827C382.044 77.6588 382.629 82.241 381.272 85.9449C379.843 89.9244 376.658 92.323 373.267 94.0856C369.936 95.8119 366.302 96.9567 362.336 95.7756C358.657 94.6974 355.114 91.6689 351.487 88.6918C348.178 86.066 344.338 83.3706 341.61 79.5728C338.815 75.8144 337.759 71.6986 336.569 68.0038C335.218 63.8819 333.826 59.7752 334.682 56.3742C335.648 52.6672 338.961 50.196 342.715 48.2153C346.527 46.2013 350.851 44.6446 355.666 45.3139C360.092 45.9439 364.183 48.6453 368.21 51.3922C371.753 53.8817 375.74 56.4832 378.172 60.4597Z" fill="#E85F58"/>
<path d="M398.904 83.6038C397.344 84.785 395.573 85.6451 393.823 86.5203C392.414 87.183 391.051 87.9409 389.744 88.7887C386.374 91.0813 382.826 94.7489 378.989 93.3739C377.4 92.8046 376.237 91.4447 375.274 90.0577C368.31 80.0453 368.401 67.1921 369.767 54.8236C370.148 51.3619 370.629 47.9397 371.087 44.6295C372.332 44.442 373.596 44.4206 374.847 44.5659L371.147 53.812C372.056 53.2941 373.037 52.9035 373.951 52.4098C375.233 51.6919 376.212 50.5349 376.708 49.1519C377.205 47.769 377.185 46.2532 376.652 44.8839C377.837 45.1678 378.987 45.5833 380.079 46.1225C385.257 48.6362 389.269 53.7636 389.557 59.5602C389.651 61.453 389.42 63.4367 390.183 65.1751C392.285 69.9663 400.175 69.7179 402.337 74.4879C403.785 77.677 401.704 81.4808 398.904 83.6038Z" fill="#DD97DB"/>
<path d="M378.172 60.4597C380.536 64.4725 380.897 68.9972 381.454 73.0827C382.044 77.6588 382.629 82.241 381.272 85.9449C379.843 89.9244 376.658 92.323 373.267 94.0856C369.936 95.8119 366.302 96.9567 362.336 95.7756C358.657 94.6974 355.114 91.6689 351.487 88.6918C348.178 86.066 344.338 83.3706 341.61 79.5728C338.815 75.8144 337.759 71.6986 336.569 68.0038C335.218 63.8819 333.826 59.7752 334.682 56.3742C335.648 52.6672 338.961 50.196 342.715 48.2153C346.527 46.2013 350.851 44.6446 355.666 45.3139C360.092 45.9439 364.183 48.6453 368.21 51.3922C371.753 53.8817 375.74 56.4832 378.172 60.4597Z" fill="#DE5749"/>
<path d="M368.119 81.9654C369.027 82.241 370.344 82.6256 370.732 83.5766C370.801 83.7457 370.835 83.927 370.832 84.1096C370.84 84.3096 370.805 84.5089 370.729 84.6941C370.696 84.788 370.729 84.6759 370.702 84.7577C370.674 84.8395 370.644 84.8637 370.614 84.9152C370.584 84.9667 370.532 85.0272 370.577 84.9697C370.539 85.0143 370.499 85.0568 370.456 85.0969C370.363 85.1847 370.52 85.0605 370.414 85.1332C370.365 85.1644 370.315 85.1927 370.263 85.218C370.332 85.1878 370.22 85.218 370.205 85.218L370.117 85.2392C370.16 85.2392 370.154 85.2392 370.099 85.2392C369.98 85.2423 369.866 85.2911 369.781 85.3757C369.697 85.4602 369.648 85.574 369.645 85.6935C369.645 85.814 369.693 85.9295 369.778 86.0147C369.863 86.0999 369.979 86.1478 370.099 86.1478C371.116 86.066 371.701 85.1514 371.74 84.1914C371.783 83.1041 371.047 82.2591 370.138 81.7685C369.571 81.4783 368.976 81.2479 368.361 81.081C367.801 80.9145 367.559 81.7897 368.119 81.9563V81.9654Z" fill="#070707"/>
<path d="M380.055 68.9851C382.007 68.9851 383.589 67.4027 383.589 65.4508C383.589 63.4988 382.007 61.9164 380.055 61.9164C378.103 61.9164 376.521 63.4988 376.521 65.4508C376.521 67.4027 378.103 68.9851 380.055 68.9851Z" fill="#DE5749"/>
<path d="M359.792 82.665C360.331 82.665 360.767 82.2284 360.767 81.6898C360.767 81.1512 360.331 80.7146 359.792 80.7146C359.254 80.7146 358.817 81.1512 358.817 81.6898C358.817 82.2284 359.254 82.665 359.792 82.665Z" fill="#222228"/>
<path d="M371.298 76.829C371.837 76.829 372.273 76.3924 372.273 75.8538C372.273 75.3152 371.837 74.8786 371.298 74.8786C370.76 74.8786 370.323 75.3152 370.323 75.8538C370.323 76.3924 370.76 76.829 371.298 76.829Z" fill="#222228"/>
<path d="M412.583 118.468C412.583 119.553 411.251 120.343 409.555 121.094C408.471 121.573 407.242 122.366 405.71 122.608C404.441 122.814 403.015 122.499 401.559 122.499C400.102 122.499 398.676 122.802 397.407 122.608C395.875 122.36 394.643 121.567 393.562 121.094C391.869 120.343 390.534 119.553 390.534 118.468C390.534 117.384 391.866 116.594 393.562 115.843C394.646 115.364 395.875 114.571 397.407 114.328C398.676 114.122 400.102 114.44 401.559 114.44C403.015 114.44 404.441 114.138 405.71 114.328C407.242 114.58 408.474 115.373 409.555 115.843C411.251 116.594 412.583 117.384 412.583 118.468Z" fill="#DE5749"/>
<path d="M367.32 71.8894L368.025 73.7247C368.025 73.7247 369.821 70.3933 374.145 71.1595C374.145 71.1595 372.555 69.9451 367.32 71.8894Z" fill="black"/>
<path d="M360.528 75.2511L361.546 76.9319C361.546 76.9319 357.824 76.3262 355.769 80.1967C355.769 80.1967 355.784 78.1979 360.528 75.2511Z" fill="black"/>
<path d="M372.788 89.028C373.621 88.0344 374.757 87.3409 376.022 87.0534C376.138 87.0213 376.237 86.9442 376.297 86.8391C376.356 86.734 376.372 86.6096 376.34 86.4931C376.307 86.3766 376.23 86.2777 376.125 86.2181C376.02 86.1584 375.896 86.143 375.779 86.1751C374.364 86.5059 373.091 87.2805 372.146 88.3859C372.064 88.4729 372.019 88.5877 372.019 88.707C372.019 88.8262 372.064 88.941 372.146 89.028C372.232 89.1125 372.348 89.1599 372.468 89.1599C372.589 89.1599 372.705 89.1125 372.791 89.028H372.788Z" fill="#AD3D38"/>
<path d="M404.505 103.686C395.158 102.965 386.762 101.808 377.515 103.362C375.395 103.719 373.227 104.153 371.374 105.258C369.521 106.363 368.016 108.338 367.95 110.494L378.774 109.804" fill="#141419"/>
<path d="M348.971 67.9947C348.668 67.8948 348.32 67.6404 348.062 67.7161C339.282 70.4418 334.437 77.3317 330.625 84.9455C326.48 93.2528 324.109 102.208 323.322 111.485C322.659 119.332 325.405 123.296 331.775 125.616C335.806 127.091 340.193 127.369 344.435 127.403C354.999 127.487 365.6 128.081 376.128 126.83C381.36 126.225 386.692 126.476 391.836 125.074C396.632 123.768 401.749 118.181 397.438 113.132C394.925 111.085 391.633 110.406 388.436 110.082C376.6 108.895 359.826 111.621 347.993 110.422" fill="#141419"/>
<path d="M376.652 44.8809C376.053 44.7418 375.446 44.6406 374.835 44.578L375.041 44.0662L376.464 44.472C376.256 44.009 375.993 43.5727 375.68 43.1728C371.771 38.1393 364.225 37.8425 358.421 38.0636C350.5 38.3665 340.523 38.0939 336.278 46.1195C333.081 52.1615 334.074 59.8843 329.565 65.2297C324.252 71.526 318.002 72.7041 317.757 82.0896C317.566 89.0552 320.022 96.0391 314.647 101.775C311.432 105.219 309.681 108.62 309.152 111.945C308.016 119.05 313.578 128.384 319.976 131.579C321.109 132.145 322.598 132.2 323.555 131.37C325.884 129.356 324.66 121.252 325.348 118.211C326.389 113.605 328.766 109.695 332.799 107.124C338.785 103.311 346.967 102.974 351.299 96.7205C355.932 90.0304 351.524 85.0969 350.352 78.5492C348.671 69.1365 362.424 66.3987 366.527 60.0145C367.635 58.2973 368.316 56.244 369.766 54.8296C369.869 54.7297 369.978 54.6298 370.09 54.5268C370.418 54.2575 370.769 54.0173 371.138 53.809C372.046 53.2911 373.027 52.9005 373.942 52.4068C375.225 51.6903 376.206 50.534 376.704 49.1509C377.202 47.7678 377.184 46.2513 376.652 44.8809Z" fill="#DF97DE"/>
<path d="M376.476 44.4599C376.54 44.5992 376.6 44.7385 376.652 44.8808C376.053 44.7418 375.446 44.6406 374.835 44.578L375.041 44.0662" fill="#DF97DE"/>
<path d="M380.079 46.1225C379.867 50.5018 371.456 53.6939 371.147 53.8211C372.055 53.3032 373.036 52.9125 373.951 52.4189C375.233 51.7009 376.212 50.5439 376.708 49.161C377.204 47.778 377.184 46.2623 376.652 44.8929C377.836 45.174 378.986 45.5864 380.079 46.1225Z" fill="#CC83CC"/>
<path d="M367.961 110.27C367.961 110.27 391.579 110.549 395.291 111.784C395.291 111.772 393.665 107.469 367.961 110.27Z" fill="#0C0C0F"/>
<path d="M388.463 104.979C388.463 104.979 398.679 104.289 407.139 104.979C407.139 104.979 403.733 102.42 388.463 104.979Z" fill="#0C0C0F"/>
</g>
<rect y="243" width="428" height="124" fill="url(#paint3_linear_702_1130)"/>
<g clip-path="url(#clip4_702_1130)">
<path d="M100.09 48.5488C100.09 48.5488 102.237 27.7703 96.4175 20.6725C96.4175 20.6725 100.981 36.3476 100.09 48.5488Z" fill="#0C0C0F"/>
<path d="M28.4318 26.9554V30.0647L28.3245 40.7006L17.1581 37.913L15.3544 31.2977L15.0108 29.5179C14.976 29.3602 14.9903 29.1956 15.0517 29.0461C15.1131 28.8967 15.2186 28.7695 15.3544 28.6816C17.5356 27.6364 19.8829 26.9797 22.2904 26.741C24.1548 26.4553 26.0423 26.3476 27.9272 26.4193C28.0639 26.4275 28.1923 26.4876 28.2861 26.5873C28.38 26.687 28.4321 26.8186 28.4318 26.9554Z" fill="#D6D6D6"/>
<path d="M30.9226 44.6033L19.5309 43.4668C19.3846 43.4516 19.2466 43.3922 19.1352 43.2963C19.0239 43.2005 18.9446 43.0729 18.9081 42.9307L17.6948 38.642C17.6624 38.5276 17.6023 38.4228 17.52 38.3368C17.4376 38.2508 17.3355 38.1863 17.2224 38.1488L15.9447 37.3661C15.7992 37.3156 15.6728 37.2217 15.5826 37.097C15.4923 36.9724 15.4426 36.823 15.4401 36.6692V34.7501C15.4378 34.6471 15.4577 34.545 15.4984 34.4504C15.5392 34.3558 15.5997 34.2711 15.6761 34.202C15.7525 34.1329 15.8428 34.0809 15.941 34.0497C16.0393 34.0185 16.143 34.0087 16.2454 34.021C19.5949 34.3482 22.9197 34.8925 26.1985 35.6507C26.3133 35.6847 26.4348 35.69 26.5522 35.666C26.6696 35.6421 26.7793 35.5897 26.8716 35.5134C26.9639 35.4371 27.036 35.3393 27.0815 35.2286C27.127 35.1179 27.1446 34.9978 27.1326 34.8787C27.1306 34.5499 27.1963 34.2241 27.3255 33.9217C27.4548 33.6192 27.645 33.3465 27.8841 33.1204C28.4532 32.6379 29.3873 33.2276 29.9456 33.4956C31.481 34.2568 33.2633 35.5756 33.521 37.3983C33.5422 37.4973 33.5422 37.5996 33.521 37.6985L31.7494 44.1315C31.6873 44.2934 31.571 44.4288 31.4203 44.5148C31.2696 44.6008 31.0938 44.632 30.9226 44.6033Z" fill="#DE5749"/>
<path d="M61.7483 11.2375C60.6059 12.5943 59.599 14.0594 58.742 15.6119C57.7757 17.1396 56.956 18.755 56.2939 20.4366C55.4994 22.3022 55.435 24.3822 54.5117 26.2049C53.5883 28.0276 52.9548 30.3649 52.1173 32.4234C51.1725 34.7286 49.8734 36.8622 48.7567 39.0816C47.6401 41.301 47.0281 43.5954 46.1369 45.8684C44.5479 49.9104 42.6259 53.781 40.6396 57.6622C39.4241 59.8774 38.9041 62.4065 39.1472 64.9208C39.3642 66.809 40.2609 68.5541 41.6704 69.8313C42.991 70.9034 44.3224 72.4688 45.9651 73.0478C51.4516 74.7632 46.3838 73.9162 51.9885 73.9591C62.0704 74.0235 72.0127 77.2614 82.0516 78.3014C85.9384 78.7088 107.058 78.5158 101.722 69.3703C101.067 68.2338 101.421 64.8886 101.367 63.5698C101.249 60.5999 101.26 57.6408 101.367 54.6816C101.657 46.1686 103.085 37.9558 101.732 29.5071C101.234 26.0614 100.247 22.7041 98.8011 19.536C96.5851 14.8685 93.9092 10.4328 90.8129 6.29479C87.9677 2.85314 87.0335 4.21478 82.7388 4.42921C80.317 4.07723 77.8605 4.0304 75.427 4.28983C73.7769 4.50618 72.184 5.03764 70.735 5.8552C68.7749 6.66726 66.9009 7.67295 65.1411 8.85726C64.0674 9.62922 62.9937 10.2725 61.92 11.0766L61.7483 11.2375Z" fill="#141419"/>
<path d="M66.9774 9.28617C68.2981 7.22761 67.4928 4.99751 65.9038 2.97112C65.5924 2.5637 65.2488 2.167 64.8301 1.7703L80.9353 -2.29321L81.1071 -1.90723C81.4192 -1.15681 81.804 -0.438628 82.256 0.237096C82.92 1.13899 83.8082 1.85225 84.8328 2.30638C80.0012 3.7002 71.6802 7.38844 66.9774 9.28617Z" fill="#DE5749"/>
<path d="M80.7097 -1.27467C82.1214 -3.39961 83.207 -5.72327 83.9308 -8.16869C85.6918 -13.0548 85.6078 -18.4146 83.6946 -23.2433C82.7061 -25.6238 81.1592 -27.7323 79.1841 -29.391C77.2091 -31.0498 74.8638 -32.2103 72.3457 -32.7749C69.5908 -33.2728 66.7489 -32.8979 64.2179 -31.7027C63.0624 -31.1584 62.0006 -30.4347 61.0721 -29.5584C59.73 -28.2932 57.9262 -27.6714 56.8954 -26.1167C55.9646 -24.5285 55.4927 -22.7137 55.5319 -20.8738C55.4782 -18.4293 55.7359 -15.899 54.8984 -13.6046C54.5011 -12.5324 53.8247 -11.5567 53.5455 -10.4631C52.7188 -7.69693 54.0717 -4.78065 55.8647 -2.67921C58.1409 -0.020237 61.2331 2.51007 64.8515 2.821C68.4659 3.2907 72.1343 3.13473 75.6956 2.35996C77.7456 1.78026 79.5227 0.492104 80.7097 -1.27467Z" fill="#DE5749"/>
<path d="M114.38 18.1637C115.701 17.574 117.108 17.0915 117.397 15.8049C117.741 14.2396 116.141 13.0066 114.745 12.2132L104.556 6.46635C101.083 4.31456 97.3577 2.59697 93.4649 1.35214C89.5245 0.279972 85.1546 0.279974 81.5256 2.1241C79.8077 3.01399 76.9946 4.71872 75.0835 5.15831C74.5037 9.908 79.3782 12.7385 82.6744 15.5047L89.589 21.2515C92.8744 23.9855 96.3424 26.8053 100.53 27.6845C104.717 28.5637 109.796 26.8053 111.159 22.7525C111.557 21.5946 111.642 20.2651 112.458 19.3431C113.008 18.8185 113.663 18.4164 114.38 18.1637Z" fill="#141419"/>
<path d="M81.3003 5.13687L68.6952 4.63296C67.7613 4.55465 66.8209 4.61244 65.9036 4.80451C64.9818 5.04736 64.1635 5.58179 63.5713 6.32783C62.979 7.07387 62.6446 7.99139 62.6182 8.94305C62.6508 9.89264 63.0461 10.7938 63.7228 11.4616C64.3996 12.1295 65.3067 12.5135 66.258 12.5348" fill="#141419"/>
<path d="M27.9813 27.513C28.0457 27.8882 27.4337 28.36 26.3923 28.7996C24.9878 29.3587 23.526 29.7614 22.0331 30.0004C19.2523 30.4829 16.8364 30.4829 15.956 30.0004C15.7413 29.9039 15.6125 29.786 15.591 29.6359C15.582 29.5651 15.5899 29.4932 15.6142 29.4261C15.6385 29.359 15.6784 29.2986 15.7306 29.2499C16.3211 28.4994 18.651 27.6416 21.5392 27.1056C23.1479 26.7964 24.789 26.6883 26.4244 26.7839C27.3371 26.9662 27.9169 27.1806 27.9813 27.513Z" fill="#141419"/>
<path d="M88.8141 39.9947L54.7725 20.3687C53.1558 19.4366 51.1458 19.8907 50.283 21.383L39.9864 39.192C39.1236 40.6843 39.7347 42.6496 41.3515 43.5817L75.393 63.2078C77.0097 64.1399 79.0197 63.6858 79.8825 62.1935L90.1792 44.3844C91.0419 42.8922 90.4308 40.9268 88.8141 39.9947Z" fill="#8E8E8E"/>
<path d="M64.8804 42.1205C64.7263 42.613 64.5 43.0798 64.2089 43.5055C63.806 44.0952 63.3863 44.6917 62.7282 44.7018C62.0701 44.7119 61.872 44.3109 61.13 44.3109C60.3879 44.3109 60.1563 44.6917 59.5452 44.7119C58.9341 44.7321 58.4238 44.0682 58.0175 43.4819C57.1882 42.2789 56.5502 40.0716 57.4064 38.5956C57.6054 38.2319 57.8964 37.9273 58.2501 37.7125C58.6038 37.4978 59.0076 37.3804 59.421 37.3724C60.0421 37.3724 60.633 37.7936 61.0124 37.7936C61.3919 37.7936 62.1137 37.2679 62.8692 37.3488C63.2173 37.3621 63.5576 37.4557 63.8639 37.6222C64.1701 37.7888 64.4341 38.0238 64.6353 38.3092C64.321 38.5053 64.0607 38.7774 63.8782 39.1006C63.6958 39.4238 63.5971 39.7878 63.5911 40.1592C63.5923 40.578 63.7162 40.9871 63.9472 41.3358C64.1782 41.6845 64.5062 41.9573 64.8905 42.1205H64.8804ZM62.3756 36.5602C62.7385 36.1252 62.919 35.5659 62.8793 35C62.3265 35.0549 61.8152 35.3188 61.4489 35.738C61.2674 35.9417 61.1289 36.1801 61.0417 36.439C60.9546 36.6979 60.9207 36.9719 60.942 37.2443C61.2158 37.2457 61.4864 37.1859 61.7344 37.0693C61.9824 36.9528 62.2014 36.7823 62.3756 36.5703" fill="black"/>
<path d="M64.5586 42.6989C65.3586 42.2989 65.5586 39.1989 64.5586 38.1989L63.5586 38.6989L63.0586 40.1989L64.5586 42.6989Z" fill="black"/>
<path d="M82.4064 30.3543C82.0091 36.0903 81.526 36.7229 80.9354 41.4512C80.3662 45.5033 79.1405 49.4359 77.3064 53.0949C75.9643 55.8182 70.8643 60.6858 67.976 61.6722C66.5793 62.0609 65.13 62.2274 63.6813 62.1654C56.3588 62.219 48.4672 62.1011 42.5512 57.791C38.1598 54.5745 35.422 49.4495 30.8266 46.5654C30.2361 46.1901 29.5596 45.7827 29.3986 45.1073C29.3464 44.7138 29.3868 44.3137 29.5167 43.9386C30.0106 42.0838 32.6411 40.2289 33.135 38.3741C33.1912 38.0259 33.348 37.7018 33.586 37.4413C34.1336 36.9481 34.9925 37.2697 35.7333 37.5485C38.5786 38.6206 39.6093 38.224 42.6693 38.2454C47.9304 38.2454 53.9 40.9473 58.4417 43.6062C58.4417 43.6062 63.8101 23.2351 67.0312 24.3072" fill="#141419"/>
<path d="M82.4058 31.1583C82.4058 31.1583 79.1847 69.9814 55.8857 62.1439C55.8857 62.1439 79.582 74.4845 82.4058 31.1583Z" fill="#0C0C0F"/>
<path d="M82.3409 0.312164C75.3298 4.10763 66.343 3.0569 65.9136 3.00329C75.9847 3.09979 79.7856 0.108444 81.1921 -1.87506C81.5017 -1.10985 81.8865 -0.377182 82.3409 0.312164Z" fill="#AD3D38"/>
</g>
<defs>
<linearGradient id="paint0_linear_702_1130" x1="66" y1="278" x2="66" y2="367" gradientUnits="userSpaceOnUse">
<stop stop-color="#222228"/>
<stop offset="1" stop-color="#181920" stop-opacity="0"/>
</linearGradient>
<linearGradient id="paint1_linear_702_1130" x1="362" y1="296" x2="362" y2="367" gradientUnits="userSpaceOnUse">
<stop stop-color="#222228"/>
<stop offset="1" stop-color="#181920" stop-opacity="0"/>
</linearGradient>
<linearGradient id="paint2_linear_702_1130" x1="214" y1="342" x2="214" y2="363" gradientUnits="userSpaceOnUse">
<stop stop-color="#222228"/>
<stop offset="1" stop-color="#181920" stop-opacity="0"/>
</linearGradient>
<linearGradient id="paint3_linear_702_1130" x1="214" y1="243" x2="214" y2="358.611" gradientUnits="userSpaceOnUse">
<stop stop-color="#181920" stop-opacity="0"/>
<stop offset="0.0001" stop-color="#181920" stop-opacity="0"/>
<stop offset="0.864583" stop-color="#181920"/>
</linearGradient>
<clipPath id="clip0_702_1130">
<rect width="115.35" height="99.44" fill="white" transform="translate(304 181)"/>
</clipPath>
<clipPath id="clip1_702_1130">
<rect width="123" height="110" fill="white" transform="translate(153 218)"/>
</clipPath>
<clipPath id="clip2_702_1130">
<rect width="115" height="98" fill="white" transform="translate(157 23)"/>
</clipPath>
<clipPath id="clip3_702_1130">
<rect width="108" height="96" fill="white" transform="translate(13 165)"/>
</clipPath>
<clipPath id="clip4_702_1130">
<rect width="102" height="71" fill="white" transform="translate(15)"/>
</clipPath>
</defs>
</svg>
