<svg width="20" height="19" viewBox="0 0 20 19" fill="none" xmlns="http://www.w3.org/2000/svg">
<path opacity="0.9" fill-rule="evenodd" clip-rule="evenodd" d="M10 0C4.47778 0 0 3.47778 0 7.77778C0 10.4444 1.73333 12.7778 4.36667 14.1944L3.25556 18.2667C3.23621 18.3474 3.24209 18.432 3.27238 18.5093C3.30268 18.5865 3.35594 18.6526 3.42498 18.6986C3.49402 18.7447 3.57551 18.7684 3.65847 18.7667C3.74142 18.7649 3.82185 18.7378 3.88889 18.6889L8.75556 15.4611C9.16667 15.5 9.58333 15.5278 10.0056 15.5278C15.5278 15.5278 20.0056 12.05 20.0056 7.75C20.0056 3.45 15.5222 0 10 0Z" fill="black"/>
</svg>
