<svg width="320" height="48" viewBox="0 0 320 48" fill="none" xmlns="http://www.w3.org/2000/svg">
<rect width="320" height="48" rx="6" fill="#FEE500"/>
<path d="M131.822 20.1562H126.23V21.209H130.517C130.469 21.9062 130.366 22.5693 130.182 23.1982L125.588 23.5059L125.779 24.627L129.778 24.251C129.054 25.8027 127.734 27.1221 125.52 28.209L126.23 29.1797C130.701 26.9785 131.809 23.7725 131.822 20.1562ZM133.695 31.1484H134.994V24.873H136.895V23.8066H134.994V18.9121H133.695V31.1484ZM143.922 20.1562H138.33V21.209H142.616C142.568 21.9062 142.466 22.5693 142.281 23.1982L137.688 23.5059L137.879 24.627L141.878 24.251C141.153 25.8027 139.834 27.1221 137.619 28.209L138.33 29.1797C142.801 26.9785 143.908 23.7725 143.922 20.1562ZM145.795 31.1484H147.094V24.873H148.994V23.8066H147.094V18.9121H145.795V31.1484ZM155.229 19.6504C152.624 19.6572 150.71 20.9492 150.717 22.9043C150.71 24.7363 152.316 25.96 154.586 26.1445V28.5508H149.65V29.6309H160.861V28.5508H155.871V26.1445C158.154 25.96 159.754 24.7363 159.754 22.9043C159.754 20.9492 157.847 19.6572 155.229 19.6504ZM151.975 22.9043C151.975 21.5781 153.342 20.7031 155.229 20.7168C157.129 20.7031 158.489 21.5781 158.496 22.9043C158.489 24.2783 157.129 25.1328 155.229 25.1465C153.342 25.1328 151.975 24.2783 151.975 22.9043ZM172.961 28.6055H167.971V26.459H171.881V25.3926H164.402V23.6016H171.594V19.7734H163.09V20.8398H170.309V22.5625H163.117V26.459H166.686V28.6055H161.75V29.6992H172.961V28.6055ZM188.479 28.6055H183.488V26.459H187.398V25.3926H179.92V23.6016H187.111V19.7734H178.607V20.8398H185.826V22.5625H178.635V26.459H182.203V28.6055H177.268V29.6992H188.479V28.6055ZM199.074 20.1562H190.57V21.2227H197.789V21.4688C197.789 23.0137 197.789 24.8115 197.297 27.2656L198.623 27.3887C199.074 24.7705 199.074 23.0547 199.074 21.4688V20.1562ZM189.367 29.4258H200.537V28.3457H189.367V29.4258ZM211.625 18.9258H210.326V27.8262H211.625V18.9258ZM201.713 22.7812C201.72 24.5791 203.128 25.8301 204.98 25.8301C206.826 25.8301 208.234 24.5791 208.234 22.7812C208.234 21.0107 206.826 19.7529 204.98 19.7461C203.128 19.7529 201.72 21.0107 201.713 22.7812ZM202.984 22.7812C202.978 21.6533 203.839 20.8809 204.98 20.8809C206.102 20.8809 206.963 21.6533 206.963 22.7812C206.963 23.9365 206.102 24.6953 204.98 24.6953C203.839 24.6953 202.978 23.9365 202.984 22.7812ZM203.613 30.9023H211.994V29.8496H204.926V26.9238H203.613V30.9023Z" fill="black" fill-opacity="0.9"/>
<g clip-path="url(#clip0_868_966)">
<g opacity="0.9">
<path opacity="0.9" fill-rule="evenodd" clip-rule="evenodd" d="M25 16C19.4778 16 15 19.4778 15 23.7778C15 26.4444 16.7333 28.7778 19.3667 30.1944L18.2556 34.2667C18.2362 34.3474 18.2421 34.432 18.2724 34.5093C18.3027 34.5865 18.3559 34.6526 18.425 34.6986C18.494 34.7447 18.5755 34.7684 18.6585 34.7667C18.7414 34.7649 18.8218 34.7378 18.8889 34.6889L23.7556 31.4611C24.1667 31.5 24.5833 31.5278 25.0056 31.5278C30.5278 31.5278 35.0056 28.05 35.0056 23.75C35.0056 19.45 30.5222 16 25 16Z" fill="black"/>
</g>
</g>
<defs>
<clipPath id="clip0_868_966">
<rect width="20" height="18.7611" fill="white" transform="translate(15 16)"/>
</clipPath>
</defs>
</svg>
