<svg width="340" height="51" viewBox="0 0 340 51" fill="none" xmlns="http://www.w3.org/2000/svg">
<rect width="340" height="51" rx="6" fill="#03C75A"/>
<path d="M128.753 21.1836H127.454V29.1133H128.261C129.778 29.1133 131.139 29.0518 132.731 28.7168L132.554 27.6094C131.193 27.8965 130.011 27.9717 128.753 27.9922V21.1836ZM130.886 25.0117H133.565V31.5605H134.796V20.1855H133.565V23.9453H130.886V25.0117ZM136.19 32.1621H137.421V19.9121H136.19V32.1621ZM149.138 19.9121H147.839V32.1895H149.138V19.9121ZM139.417 25.1211C139.417 27.7666 140.736 29.4346 142.589 29.4277C144.407 29.4346 145.747 27.7666 145.747 25.1211C145.747 22.5029 144.407 20.835 142.589 20.8281C140.736 20.835 139.417 22.5029 139.417 25.1211ZM140.675 25.1211C140.668 23.2002 141.447 21.9971 142.589 21.9902C143.71 21.9971 144.489 23.2002 144.489 25.1211C144.489 27.0693 143.71 28.2656 142.589 28.2656C141.447 28.2656 140.668 27.0693 140.675 25.1211ZM161.306 19.9121H160.021V24.3828H157.313V20.8555H156.042V23.9863H152.884V20.8555H151.571V29.1543H157.313V25.4492H160.021V32.1895H161.306V19.9121ZM152.884 28.0879V25.0117H156.042V28.0879H152.884ZM174.403 29.6055H169.413V27.459H173.323V26.3926H165.845V24.6016H173.036V20.7734H164.532V21.8398H171.751V23.5625H164.56V27.459H168.128V29.6055H163.192V30.6992H174.403V29.6055ZM189.921 29.6055H184.931V27.459H188.841V26.3926H181.362V24.6016H188.554V20.7734H180.05V21.8398H187.269V23.5625H180.077V27.459H183.646V29.6055H178.71V30.6992H189.921V29.6055ZM200.517 21.1562H192.013V22.2227H199.231V22.4688C199.231 24.0137 199.231 25.8115 198.739 28.2656L200.065 28.3887C200.517 25.7705 200.517 24.0547 200.517 22.4688V21.1562ZM190.81 30.4258H201.979V29.3457H190.81V30.4258ZM213.067 19.9258H211.769V28.8262H213.067V19.9258ZM203.155 23.7812C203.162 25.5791 204.57 26.8301 206.423 26.8301C208.269 26.8301 209.677 25.5791 209.677 23.7812C209.677 22.0107 208.269 20.7529 206.423 20.7461C204.57 20.7529 203.162 22.0107 203.155 23.7812ZM204.427 23.7812C204.42 22.6533 205.281 21.8809 206.423 21.8809C207.544 21.8809 208.405 22.6533 208.405 23.7812C208.405 24.9365 207.544 25.6953 206.423 25.6953C205.281 25.6953 204.42 24.9365 204.427 23.7812ZM205.056 31.9023H213.437V30.8496H206.368V27.9238H205.056V31.9023Z" fill="white" fill-opacity="0.9"/>
<g clip-path="url(#clip0_529_3737)">
<path d="M31.2132 26.5504L24.5339 17H19V34.8512H24.8017V25.3008L31.4661 34.8512H37V17H31.2132V26.5504Z" fill="white"/>
</g>
<defs>
<clipPath id="clip0_529_3737">
<rect width="18" height="17.8512" fill="white" transform="translate(19 17)"/>
</clipPath>
</defs>
</svg>
