<svg width="129" height="41" viewBox="0 0 129 41" fill="none" xmlns="http://www.w3.org/2000/svg">
<path d="M44.785 17.7694L39.5 35.9998H23.5L23.5 9C23.8485 9 24.1971 9.12278 24.4677 9.36834L30.8587 15.1673C33.454 17.5222 37.0978 18.5269 40.6195 17.8588L44.2048 17.1786C44.5697 17.1093 44.8837 17.429 44.785 17.7694Z" fill="url(#paint0_linear_1012_1014)"/>
<path d="M2.21502 17.7694L7.5 35.9998H23.5L23.5 9C23.1515 9 22.8029 9.12278 22.5323 9.36834L16.1413 15.1673C13.546 17.5222 9.90221 18.5269 6.38054 17.8588L2.79518 17.1786C2.43026 17.1093 2.11634 17.429 2.21502 17.7694Z" fill="url(#paint1_linear_1012_1014)"/>
<path d="M39.0262 38H7.80416C7.58934 38 7.41519 38.1746 7.41519 38.39V40.61C7.41519 40.8254 7.58934 41 7.80416 41H39.0262C39.241 41 39.4152 40.8254 39.4152 40.61V38.39C39.4152 38.1746 39.241 38 39.0262 38Z" fill="url(#paint2_linear_1012_1014)"/>
<path d="M23.2466 5.87755L21.1045 3.6C20.9778 3.46531 20.9663 3.25714 21.07 3.1102L23.2236 0.146939C23.3618 -0.0489796 23.6382 -0.0489796 23.7764 0.146939L25.93 3.1102C26.0337 3.25714 26.0222 3.46531 25.8955 3.6L23.7419 5.8898C23.6037 6.03673 23.3848 6.03673 23.2466 5.8898V5.87755Z" fill="url(#paint3_linear_1012_1014)"/>
<path d="M2.24663 14.8776L0.104515 12.6C-0.0221698 12.4653 -0.0336865 12.2571 0.0699643 12.1102L2.2236 9.14694C2.3618 8.95102 2.6382 8.95102 2.7764 9.14694L4.93004 12.1102C5.03369 12.2571 5.02217 12.4653 4.89548 12.6L2.74185 14.8898C2.60365 15.0367 2.38483 15.0367 2.24663 14.8898V14.8776Z" fill="url(#paint4_linear_1012_1014)"/>
<path d="M44.2466 14.8776L42.1045 12.6C41.9778 12.4653 41.9663 12.2571 42.07 12.1102L44.2236 9.14694C44.3618 8.95102 44.6382 8.95102 44.7764 9.14694L46.93 12.1102C47.0337 12.2571 47.0222 12.4653 46.8955 12.6L44.7419 14.8898C44.6037 15.0367 44.3848 15.0367 44.2466 14.8898V14.8776Z" fill="url(#paint5_linear_1012_1014)"/>
<path d="M43.0192 37.9327L48.8964 17.3626C48.9577 17.148 49.1539 17 49.3771 17H129V41H43.5C43.2239 41 43 40.7761 43 40.5V38.07C43 38.0236 43.0065 37.9773 43.0192 37.9327Z" fill="#FFDBE1"/>
<path d="M80.4698 35.1758C83.4053 35.1758 85.418 33.3477 85.4093 30.6934C85.418 28.3291 83.7745 26.6152 81.4718 26.6152C80.0479 26.6152 78.7647 27.292 78.2198 28.4434H78.1319C78.1319 26.1318 78.9317 24.6553 80.5401 24.6641C81.4366 24.6553 82.1221 25.1035 82.3155 25.9297H85.2686C85.0225 23.7939 83.212 22.0977 80.5401 22.0977C77.2882 22.0977 75.1788 24.6465 75.1612 28.8652C75.1612 33.5146 77.6925 35.167 80.4698 35.1758ZM78.4132 30.7988C78.4132 29.6299 79.2921 28.7246 80.4698 28.7246C81.6475 28.7246 82.5089 29.6123 82.4913 30.7812C82.5089 31.9678 81.6387 32.8643 80.4522 32.8555C79.2745 32.8643 78.4132 31.9502 78.4132 30.7988Z" fill="url(#paint6_linear_1012_1014)"/>
<path d="M91.9502 24.7305C90.2861 24.7305 89.0557 25.6973 89.0674 27.0977C89.0557 28.4629 90.2861 29.4473 91.9502 29.4414C93.6318 29.4473 94.8623 28.4629 94.8682 27.0977C94.8623 25.6973 93.6318 24.7305 91.9502 24.7305ZM88.5049 29.9336L88.7275 31.4453C89.4248 31.4336 90.2275 31.4219 91.083 31.3867V34.8438H92.9697V31.2637C93.7783 31.1934 94.5986 31.0762 95.3955 30.9062L95.2666 29.5469C93.0283 29.8867 90.3506 29.9277 88.5049 29.9336ZM90.8721 27.0977C90.8721 26.4941 91.3232 26.2246 91.9502 26.2305C92.624 26.2246 93.0811 26.4941 93.0869 27.0977C93.0811 27.6602 92.624 27.9238 91.9502 27.918C91.3232 27.9238 90.8721 27.6602 90.8721 27.0977ZM95.8291 35.1484H97.7041V24.3438H95.8291V35.1484Z" fill="url(#paint7_linear_1012_1014)"/>
<defs>
<linearGradient id="paint0_linear_1012_1014" x1="36" y1="14.1821" x2="27.7834" y2="35.3554" gradientUnits="userSpaceOnUse">
<stop stop-color="#F76078"/>
<stop offset="0.640625" stop-color="#F9CCD3"/>
</linearGradient>
<linearGradient id="paint1_linear_1012_1014" x1="9.5" y1="40.743" x2="24.8406" y2="17.2204" gradientUnits="userSpaceOnUse">
<stop stop-color="#F9CCD3"/>
<stop offset="0.546875" stop-color="#F58194"/>
<stop offset="1" stop-color="#F1415E"/>
</linearGradient>
<linearGradient id="paint2_linear_1012_1014" x1="7.0011" y1="38" x2="39.9153" y2="40.9843" gradientUnits="userSpaceOnUse">
<stop stop-color="#FECBD3"/>
<stop offset="1" stop-color="#E72847"/>
</linearGradient>
<linearGradient id="paint3_linear_1012_1014" x1="23.5" y1="0" x2="23.5" y2="6" gradientUnits="userSpaceOnUse">
<stop stop-color="#E72847"/>
<stop offset="1" stop-color="#E26478"/>
</linearGradient>
<linearGradient id="paint4_linear_1012_1014" x1="2.5" y1="9" x2="2.5" y2="15" gradientUnits="userSpaceOnUse">
<stop stop-color="#E72847"/>
<stop offset="1" stop-color="#E26478"/>
</linearGradient>
<linearGradient id="paint5_linear_1012_1014" x1="44.5" y1="9" x2="44.5" y2="15" gradientUnits="userSpaceOnUse">
<stop stop-color="#E72847"/>
<stop offset="1" stop-color="#E26478"/>
</linearGradient>
<linearGradient id="paint6_linear_1012_1014" x1="81.1001" y1="21" x2="81.1001" y2="39.4005" gradientUnits="userSpaceOnUse">
<stop stop-color="#E72847"/>
<stop offset="1" stop-color="#E72847" stop-opacity="0.38"/>
</linearGradient>
<linearGradient id="paint7_linear_1012_1014" x1="93.7002" y1="24" x2="93.7002" y2="36" gradientUnits="userSpaceOnUse">
<stop stop-color="#E72847"/>
<stop offset="1" stop-color="#E72847" stop-opacity="0.38"/>
</linearGradient>
</defs>
</svg>
