<svg width="28" height="28" viewBox="0 0 28 28" fill="none" xmlns="http://www.w3.org/2000/svg">
<circle cx="14" cy="14" r="14" fill="#E72847"/>
<g clip-path="url(#clip0_529_4672)">
<path d="M17.2741 16.051C18.1213 14.8949 18.5008 13.4615 18.3366 12.0375C18.1724 10.6136 17.4765 9.3042 16.3884 8.37127C15.3002 7.43833 13.8998 6.95068 12.4675 7.00587C11.0352 7.06106 9.6766 7.65502 8.66342 8.66892C7.65024 9.68282 7.05725 11.0419 7.00309 12.4742C6.94893 13.9066 7.43758 15.3065 8.37129 16.3941C9.305 17.4816 10.6149 18.1765 12.039 18.3397C13.463 18.5029 14.8961 18.1224 16.0517 17.2743H16.0508C16.0771 17.3093 16.1051 17.3425 16.1366 17.3749L19.5053 20.7437C19.6694 20.9078 19.892 21.0001 20.1241 21.0002C20.3562 21.0003 20.5788 20.9082 20.743 20.7441C20.9072 20.58 20.9995 20.3574 20.9995 20.1253C20.9996 19.8932 20.9075 19.6706 20.7434 19.5064L17.3747 16.1377C17.3434 16.106 17.3098 16.0767 17.2741 16.0502V16.051ZM17.4998 12.6875C17.4998 13.3195 17.3753 13.9453 17.1335 14.5292C16.8916 15.1131 16.5371 15.6436 16.0903 16.0905C15.6434 16.5374 15.1129 16.8918 14.529 17.1337C13.9451 17.3755 13.3193 17.5 12.6873 17.5C12.0553 17.5 11.4295 17.3755 10.8456 17.1337C10.2618 16.8918 9.73124 16.5374 9.28436 16.0905C8.83748 15.6436 8.48299 15.1131 8.24114 14.5292C7.99929 13.9453 7.87481 13.3195 7.87481 12.6875C7.87481 11.4112 8.38184 10.1871 9.28436 9.28458C10.1869 8.38206 11.411 7.87503 12.6873 7.87503C13.9637 7.87503 15.1877 8.38206 16.0903 9.28458C16.9928 10.1871 17.4998 11.4112 17.4998 12.6875Z" fill="white"/>
</g>
<defs>
<clipPath id="clip0_529_4672">
<rect width="14" height="14" fill="white" transform="translate(7 7)"/>
</clipPath>
</defs>
</svg>
