<svg width="32" height="32" viewBox="0 0 32 32" fill="none" xmlns="http://www.w3.org/2000/svg">
<g clip-path="url(#clip0_868_979)">
<path d="M19.275 18.0513C20.1223 16.8952 20.5018 15.4618 20.3376 14.0378C20.1733 12.6139 19.4775 11.3045 18.3893 10.3716C17.3011 9.43864 15.9008 8.95099 14.4685 9.00617C13.0362 9.06136 11.6776 9.65532 10.6644 10.6692C9.65122 11.6831 9.05823 13.0422 9.00407 14.4745C8.9499 15.9069 9.43856 17.3068 10.3723 18.3944C11.306 19.4819 12.6159 20.1768 14.0399 20.34C15.464 20.5032 16.8971 20.1227 18.0527 19.2746H18.0518C18.078 19.3096 18.106 19.3428 18.1375 19.3752L21.5063 22.744C21.6704 22.9081 21.8929 23.0004 22.125 23.0005C22.3572 23.0006 22.5798 22.9085 22.744 22.7444C22.9082 22.5803 23.0004 22.3578 23.0005 22.1256C23.0006 21.8935 22.9085 21.6709 22.7444 21.5067L19.3757 18.138C19.3444 18.1063 19.3107 18.077 19.275 18.0505V18.0513ZM19.5008 14.6878C19.5008 15.3198 19.3763 15.9456 19.1345 16.5295C18.8926 17.1134 18.5381 17.6439 18.0912 18.0908C17.6444 18.5377 17.1138 18.8922 16.53 19.134C15.9461 19.3759 15.3203 19.5003 14.6883 19.5003C14.0563 19.5003 13.4305 19.3759 12.8466 19.134C12.2627 18.8922 11.7322 18.5377 11.2853 18.0908C10.8385 17.6439 10.484 17.1134 10.2421 16.5295C10.0003 15.9456 9.87579 15.3198 9.87579 14.6878C9.87579 13.4115 10.3828 12.1874 11.2853 11.2849C12.1879 10.3824 13.4119 9.87533 14.6883 9.87533C15.9646 9.87533 17.1887 10.3824 18.0912 11.2849C18.9938 12.1874 19.5008 13.4115 19.5008 14.6878V14.6878Z" fill="white"/>
</g>
<defs>
<clipPath id="clip0_868_979">
<rect width="14" height="14" fill="white" transform="translate(9 9)"/>
</clipPath>
</defs>
</svg>
