<svg width="32" height="32" viewBox="0 0 32 32" fill="none" xmlns="http://www.w3.org/2000/svg">
<g opacity="0.7" clip-path="url(#clip0_529_3865)">
<path d="M16 32C20.2435 32 24.3131 30.3143 27.3137 27.3137C30.3143 24.3131 32 20.2435 32 16C32 11.7565 30.3143 7.68687 27.3137 4.68629C24.3131 1.68571 20.2435 0 16 0C11.7565 0 7.68687 1.68571 4.68629 4.68629C1.68571 7.68687 0 11.7565 0 16C0 20.2435 1.68571 24.3131 4.68629 27.3137C7.68687 30.3143 11.7565 32 16 32ZM14 13C14 14.656 13.104 16 12 16C10.896 16 10 14.656 10 13C10 11.344 10.896 10 12 10C13.104 10 14 11.344 14 13ZM8.57 19.134C8.79968 19.0014 9.07263 18.9655 9.3288 19.0341C9.58497 19.1027 9.80339 19.2703 9.936 19.5C10.5502 20.5647 11.4341 21.4487 12.4987 22.0632C13.5632 22.6776 14.7709 23.0007 16 23C17.2291 23.0007 18.4368 22.6776 19.5013 22.0632C20.5659 21.4487 21.4498 20.5647 22.064 19.5C22.1292 19.3854 22.2164 19.2847 22.3206 19.2039C22.4249 19.1231 22.544 19.0637 22.6713 19.0292C22.7986 18.9946 22.9314 18.9856 23.0622 19.0026C23.193 19.0196 23.3191 19.0623 23.4333 19.1282C23.5475 19.1942 23.6476 19.2821 23.7277 19.3868C23.8078 19.4916 23.8664 19.6112 23.9001 19.7387C23.9338 19.8662 23.942 19.9991 23.9241 20.1297C23.9062 20.2604 23.8627 20.3862 23.796 20.5C23.0062 21.8687 21.8699 23.0052 20.5013 23.7952C19.1327 24.5852 17.5802 25.0007 16 25C14.4198 25.0007 12.8673 24.5852 11.4987 23.7952C10.1301 23.0052 8.99375 21.8687 8.204 20.5C8.0714 20.2703 8.03546 19.9974 8.1041 19.7412C8.17274 19.485 8.34033 19.2666 8.57 19.134ZM20 16C18.896 16 18 14.656 18 13C18 11.344 18.896 10 20 10C21.104 10 22 11.344 22 13C22 14.656 21.104 16 20 16Z" fill="white"/>
</g>
<defs>
<clipPath id="clip0_529_3865">
<rect width="32" height="32" fill="white"/>
</clipPath>
</defs>
</svg>
